<svg width="541" height="160" viewBox="0 0 541 160" fill="none" xmlns="http://www.w3.org/2000/svg">
<g clip-path="url(#clip0_1_9)">
<g clip-path="url(#clip1_1_9)">
<g clip-path="url(#clip2_1_9)">
<path fill-rule="evenodd" clip-rule="evenodd" d="M80.2434 5.44956L79.0878 5.44005C73.3175 5.43598 67.5014 6.10955 61.7568 7.48519C21.9338 17.0348 -2.64492 57.1188 6.90496 96.942C15.0368 130.854 45.3131 153.713 78.7116 153.852L79.6296 153.851C85.1565 153.803 90.7623 153.136 96.3615 151.791C119.965 146.133 139.31 129.286 148.154 106.681L140.601 103.723C132.722 123.858 115.493 138.863 94.4679 143.908C89.4826 145.102 84.4907 145.699 79.5667 145.739H78.7478C49.0024 145.617 22.036 125.257 14.7945 95.0528C6.28792 59.5823 28.1803 23.8823 63.6495 15.3754C68.7651 14.1491 73.9457 13.5489 79.0857 13.5529L80.1124 13.5611C96.5481 13.8245 112.525 20.2192 124.698 31.8439L130.301 25.9759C116.63 12.9242 98.6937 5.74457 80.2434 5.45115V5.44956ZM79.229 30.1134L78.5119 30.1094C74.6948 30.1175 70.8516 30.5657 67.0611 31.4741C40.5015 37.8416 24.1127 64.5768 30.4782 91.134C35.9022 113.75 56.0956 128.996 78.3666 129.086L78.9804 129.085C82.6672 129.056 86.4034 128.61 90.1378 127.715C105.301 124.078 117.861 113.509 124.037 99.1903L116.589 95.9773C111.426 107.948 100.923 116.787 88.2462 119.827C85.1242 120.576 81.9994 120.947 78.9182 120.973L78.4062 120.975C59.7842 120.896 42.901 108.15 38.3677 89.2432C33.0431 67.0386 46.7467 44.6887 68.9526 39.3627C72.1222 38.6036 75.3337 38.2274 78.5279 38.222L79.1254 38.226C88.4956 38.3442 97.6621 41.6483 105.028 47.7634L110.21 41.5221C101.398 34.2079 90.4364 30.2559 79.229 30.1134ZM79.2018 54.9076L78.5867 54.894C76.532 54.871 74.4663 55.1004 72.4374 55.588C58.9185 58.8296 50.5749 72.4368 53.8168 85.9557C56.602 97.5734 67.0451 105.37 78.5067 105.274L79.1314 105.261C80.8031 105.207 82.4952 104.983 84.1858 104.575C89.4767 103.308 94.2148 100.359 97.6898 96.1732L91.4513 90.9911C89.0938 93.8294 85.8809 95.8283 82.2929 96.6894C81.1481 96.9638 80.002 97.1158 78.868 97.1525L78.4443 97.1621C70.6726 97.2259 63.5931 91.9404 61.7058 84.064C59.5071 74.899 65.1632 65.6727 74.3285 63.474C75.7055 63.1453 77.1055 62.9891 78.4974 63.0054L78.9157 63.0149C81.8341 63.1181 84.7048 63.9682 87.2377 65.5217L91.4787 58.6067C87.74 56.3157 83.5078 55.0599 79.2018 54.9076ZM117.374 74.3746L134.207 84.0068C135.015 84.4685 135.959 84.6396 136.878 84.4876L166.508 79.6327C168.213 79.3529 169.553 78.0261 169.85 76.3273C170.145 74.6257 169.334 72.9241 167.824 72.0849L150.336 62.3549L162.274 48.2332C162.85 47.5514 163.162 46.7366 163.22 45.9096C163.308 45.4601 163.32 44.9889 163.244 44.5096C162.893 42.3 160.811 40.79 158.601 41.1417L129.427 45.7794C128.264 45.964 127.238 46.6485 126.616 47.6506L114.853 66.6451L80.2827 75.5143C78.1139 76.071 76.8047 78.2819 77.3616 80.4506C77.917 82.6179 80.1279 83.9284 82.2964 83.3715L117.374 74.3746ZM132.534 53.4979L123.297 68.4182L136.986 76.2512C136.986 76.2512 153.704 73.5093 153.704 73.5121L142.086 67.0465C141.025 66.4558 140.286 65.4224 140.067 64.2313C139.849 63.0376 140.175 61.8087 140.96 60.8826L149.478 50.8063L132.534 53.4979Z" fill="white"/>
</g>
</g>
<path d="M247.073 94.6992C244.084 94.6992 241.373 94.0983 238.939 92.8967C236.536 91.6642 234.625 89.8463 233.208 87.4429C231.79 85.0396 231.082 82.0971 231.082 78.6153C231.082 75.9655 231.513 73.6392 232.376 71.6364C233.239 69.6336 234.409 67.9544 235.888 66.5986C237.398 65.2429 239.124 64.2261 241.065 63.5483C243.037 62.8704 245.117 62.5315 247.304 62.5315C249.061 62.5315 250.678 62.7317 252.157 63.1323C253.636 63.5329 255.023 64.0875 256.317 64.7961L256.502 70.4809H256.039L253.729 66.7835C253.42 66.1981 253.082 65.6743 252.712 65.2121C252.342 64.7191 251.88 64.3494 251.325 64.1029C250.863 63.8872 250.401 63.7331 249.939 63.6407C249.507 63.5174 248.953 63.4558 248.275 63.4558C246.488 63.4558 244.855 63.9334 243.376 64.8886C241.928 65.8437 240.757 67.4306 239.863 69.649C239 71.8367 238.569 74.8408 238.569 78.6615C238.569 82.4514 238.985 85.4556 239.817 87.674C240.649 89.8617 241.774 91.4331 243.191 92.3883C244.639 93.3126 246.257 93.7748 248.044 93.7748C249.03 93.7748 249.815 93.7132 250.401 93.5899C250.986 93.4359 251.572 93.2202 252.157 92.9429C252.743 92.6964 253.189 92.342 253.498 91.8799C253.806 91.3869 254.083 90.8631 254.329 90.3085L256.363 85.7791H256.825L256.687 92.3883C255.392 93.0661 253.944 93.6207 252.342 94.0521C250.74 94.4835 248.984 94.6992 247.073 94.6992ZM270.623 94.5605C268.281 94.5605 266.248 94.0829 264.522 93.1277C262.797 92.1418 261.457 90.7552 260.501 88.9681C259.577 87.181 259.115 85.0858 259.115 82.6825C259.115 80.2792 259.608 78.1993 260.594 76.4431C261.611 74.6868 262.982 73.3311 264.707 72.3759C266.463 71.4207 268.435 70.9431 270.623 70.9431C272.811 70.9431 274.767 71.4207 276.493 72.3759C278.218 73.3002 279.574 74.6406 280.56 76.3968C281.577 78.1531 282.085 80.2483 282.085 82.6825C282.085 85.1166 281.608 87.2273 280.652 89.0143C279.728 90.7706 278.403 92.1418 276.678 93.1277C274.983 94.0829 272.965 94.5605 270.623 94.5605ZM270.623 93.6361C271.701 93.6361 272.564 93.328 273.211 92.7118C273.858 92.0955 274.32 91.0017 274.598 89.4303C274.906 87.8589 275.06 85.6404 275.06 82.7749C275.06 79.8786 274.906 77.6447 274.598 76.0733C274.32 74.5019 273.858 73.4081 273.211 72.7918C272.564 72.1756 271.701 71.8675 270.623 71.8675C269.545 71.8675 268.667 72.1756 267.989 72.7918C267.342 73.4081 266.864 74.5019 266.556 76.0733C266.279 77.6447 266.14 79.8786 266.14 82.7749C266.14 85.6404 266.279 87.8589 266.556 89.4303C266.864 91.0017 267.342 92.0955 267.989 92.7118C268.667 93.328 269.545 93.6361 270.623 93.6361ZM284.115 93.8672V93.4051L284.762 93.2202C285.841 92.9121 286.38 92.1572 286.38 90.9555V76.4893C286.38 75.8114 286.272 75.3184 286.056 75.0103C285.841 74.6714 285.425 74.4403 284.808 74.317L284.115 74.1322V73.67L292.018 70.9893L292.481 71.4515L292.85 74.2246C293.929 73.2694 295.146 72.4837 296.502 71.8675C297.857 71.2512 299.198 70.9431 300.522 70.9431C302.556 70.9431 304.112 71.4977 305.19 72.607C306.3 73.7162 306.854 75.4109 306.854 77.691V91.0017C306.854 92.2034 307.44 92.9583 308.611 93.2664L309.027 93.4051V93.8672H298.119V93.4051L298.72 93.2202C299.798 92.8813 300.338 92.1264 300.338 90.9555V76.212C300.338 74.24 299.352 73.254 297.38 73.254C296.024 73.254 294.545 73.9319 292.943 75.2876V91.0017C292.943 92.2034 293.482 92.9583 294.56 93.2664L294.976 93.4051V93.8672H284.115ZM320.633 94.5605C318.815 94.5605 317.182 94.1599 315.734 93.3588C314.286 92.5269 313.13 91.2636 312.268 89.569C311.436 87.8435 311.02 85.6404 311.02 82.9598C311.02 80.2483 311.497 78.0145 312.452 76.2582C313.408 74.4711 314.671 73.1462 316.242 72.2835C317.814 71.3899 319.524 70.9431 321.373 70.9431C322.451 70.9431 323.483 71.051 324.469 71.2667C325.455 71.4823 326.333 71.8059 327.104 72.2372V66.2289C327.104 65.5818 326.996 65.1043 326.78 64.7961C326.595 64.488 326.179 64.2723 325.532 64.1491L324.654 63.9642V63.502L333.066 61.4684L333.574 61.8844L333.389 68.3549V90.9555C333.389 91.5717 333.497 92.0801 333.713 92.4807C333.928 92.8504 334.329 93.1123 334.914 93.2664L335.33 93.4051V93.8672L327.427 94.3756L327.011 92.7118C326.179 93.2664 325.224 93.7132 324.146 94.0521C323.098 94.391 321.927 94.5605 320.633 94.5605ZM323.314 92.8504C324.608 92.8504 325.794 92.4653 326.872 91.695V73.3465C325.732 72.607 324.562 72.2372 323.36 72.2372C321.881 72.2372 320.618 73.1 319.57 74.8254C318.522 76.5201 317.999 79.2007 317.999 82.8674C317.999 86.534 318.492 89.1222 319.478 90.632C320.464 92.111 321.742 92.8504 323.314 92.8504ZM343.671 94.5605C341.883 94.5605 340.374 94.0521 339.141 93.0353C337.94 92.0185 337.339 90.5549 337.339 88.6446C337.339 87.1964 338.078 85.8715 339.557 84.6699C341.036 83.4374 343.362 82.513 346.536 81.8968C347.029 81.8043 347.584 81.7119 348.2 81.6195C348.816 81.4962 349.463 81.373 350.141 81.2497V77.5985C350.141 75.5033 349.879 74.0397 349.355 73.2078C348.862 72.3451 348.077 71.9137 346.998 71.9137C346.259 71.9137 345.673 72.1602 345.242 72.6532C344.811 73.1154 344.533 73.9319 344.41 75.1027L344.318 75.6111C344.256 76.9361 343.932 77.9066 343.347 78.5229C342.762 79.1391 342.037 79.4472 341.175 79.4472C340.374 79.4472 339.711 79.2007 339.187 78.7077C338.664 78.2148 338.402 77.5523 338.402 76.7204C338.402 75.4571 338.833 74.3941 339.696 73.5313C340.589 72.6686 341.76 72.0215 343.208 71.5902C344.657 71.1588 346.228 70.9431 347.923 70.9431C350.665 70.9431 352.775 71.621 354.254 72.9767C355.764 74.3016 356.519 76.4739 356.519 79.4935V89.7076C356.519 91.0942 357.166 91.7874 358.46 91.7874H359.477L359.893 92.1572C359.308 92.8967 358.661 93.4667 357.952 93.8672C357.274 94.2678 356.303 94.4681 355.04 94.4681C353.684 94.4681 352.606 94.1599 351.805 93.5437C351.035 92.8967 350.526 92.0493 350.28 91.0017C349.355 91.9877 348.4 92.835 347.414 93.5437C346.459 94.2216 345.211 94.5605 343.671 94.5605ZM346.49 91.7412C347.106 91.7412 347.676 91.6026 348.2 91.3252C348.755 91.0171 349.402 90.5549 350.141 89.9387V82.1741C349.833 82.2357 349.525 82.2973 349.217 82.359C348.909 82.4206 348.554 82.4822 348.154 82.5438C346.736 82.9136 345.596 83.5452 344.734 84.4388C343.902 85.3015 343.486 86.4724 343.486 87.9513C343.486 89.2146 343.778 90.1698 344.364 90.8168C344.949 91.4331 345.658 91.7412 346.49 91.7412ZM370.642 94.5605C368.824 94.5605 367.191 94.1599 365.743 93.3588C364.295 92.5269 363.14 91.2636 362.277 89.569C361.445 87.8435 361.029 85.6404 361.029 82.9598C361.029 80.2483 361.507 78.0145 362.462 76.2582C363.417 74.4711 364.68 73.1462 366.252 72.2835C367.823 71.3899 369.533 70.9431 371.382 70.9431C372.46 70.9431 373.492 71.051 374.478 71.2667C375.464 71.4823 376.343 71.8059 377.113 72.2372V66.2289C377.113 65.5818 377.005 65.1043 376.789 64.7961C376.604 64.488 376.188 64.2723 375.541 64.1491L374.663 63.9642V63.502L383.075 61.4684L383.583 61.8844L383.398 68.3549V90.9555C383.398 91.5717 383.506 92.0801 383.722 92.4807C383.938 92.8504 384.338 93.1123 384.924 93.2664L385.34 93.4051V93.8672L377.436 94.3756L377.02 92.7118C376.188 93.2664 375.233 93.7132 374.155 94.0521C373.107 94.391 371.936 94.5605 370.642 94.5605ZM373.323 92.8504C374.617 92.8504 375.803 92.4653 376.882 91.695V73.3465C375.742 72.607 374.571 72.2372 373.369 72.2372C371.89 72.2372 370.627 73.1 369.579 74.8254C368.532 76.5201 368.008 79.2007 368.008 82.8674C368.008 86.534 368.501 89.1222 369.487 90.632C370.473 92.111 371.752 92.8504 373.323 92.8504ZM399.076 94.5605C396.735 94.5605 394.701 94.0829 392.976 93.1277C391.25 92.1418 389.91 90.7552 388.955 88.9681C388.03 87.181 387.568 85.0858 387.568 82.6825C387.568 80.2792 388.061 78.1993 389.047 76.4431C390.064 74.6868 391.435 73.3311 393.161 72.3759C394.917 71.4207 396.889 70.9431 399.076 70.9431C401.264 70.9431 403.221 71.4207 404.946 72.3759C406.672 73.3002 408.027 74.6406 409.013 76.3968C410.03 78.1531 410.539 80.2483 410.539 82.6825C410.539 85.1166 410.061 87.2273 409.106 89.0143C408.181 90.7706 406.856 92.1418 405.131 93.1277C403.436 94.0829 401.418 94.5605 399.076 94.5605ZM399.076 93.6361C400.155 93.6361 401.018 93.328 401.665 92.7118C402.312 92.0955 402.774 91.0017 403.051 89.4303C403.359 87.8589 403.513 85.6404 403.513 82.7749C403.513 79.8786 403.359 77.6447 403.051 76.0733C402.774 74.5019 402.312 73.4081 401.665 72.7918C401.018 72.1756 400.155 71.8675 399.076 71.8675C397.998 71.8675 397.12 72.1756 396.442 72.7918C395.795 73.4081 395.317 74.5019 395.009 76.0733C394.732 77.6447 394.593 79.8786 394.593 82.7749C394.593 85.6404 394.732 87.8589 395.009 89.4303C395.317 91.0017 395.795 92.0955 396.442 92.7118C397.12 93.328 397.998 93.6361 399.076 93.6361ZM422.726 93.8672V93.4051L423.697 93.0815C424.313 92.8658 424.713 92.5885 424.898 92.2496C425.083 91.8799 425.176 91.3715 425.176 90.7244V66.5524C425.176 65.9362 425.083 65.4586 424.898 65.1197C424.744 64.7499 424.374 64.4572 423.789 64.2415L422.726 63.8256V63.3634H435.944C439.58 63.3634 442.369 64.0567 444.31 65.4432C446.251 66.7989 447.221 68.6939 447.221 71.128C447.221 72.4837 446.713 73.8395 445.696 75.1952C444.679 76.5509 443.077 77.5985 440.89 78.338L447.314 91.0942C447.591 91.618 447.899 92.0493 448.238 92.3883C448.608 92.6964 449.086 92.9737 449.671 93.2202L450.272 93.4513V93.8672H441.999L435.159 79.3086H432.016V90.7244C432.016 91.3098 432.108 91.7874 432.293 92.1572C432.478 92.5269 432.863 92.8042 433.449 92.9891L434.558 93.4051V93.8672H422.726ZM432.016 78.3842H434.234C436.453 78.3842 438.055 77.7988 439.041 76.6279C440.027 75.4263 440.52 73.6546 440.52 71.3129C440.52 68.9404 440.058 67.1841 439.133 66.044C438.209 64.8732 436.653 64.2877 434.465 64.2877H432.016V78.3842ZM451.748 93.8672V93.4051L452.672 93.0353C453.288 92.8196 453.689 92.5269 453.874 92.1572C454.089 91.7874 454.197 91.3098 454.197 90.7244V66.5524C454.197 65.9362 454.089 65.4432 453.874 65.0734C453.689 64.7037 453.288 64.411 452.672 64.1953L451.748 63.8256V63.3634H463.487V63.8256L462.701 64.1491C462.116 64.3648 461.715 64.6575 461.5 65.0272C461.284 65.3662 461.176 65.8437 461.176 66.46V77.691H472.222V66.46C472.222 65.8437 472.114 65.3662 471.899 65.0272C471.714 64.6575 471.313 64.3648 470.697 64.1491L469.865 63.8256V63.3634H481.651V63.8256L480.726 64.1953C480.141 64.411 479.74 64.7037 479.525 65.0734C479.309 65.4432 479.201 65.9362 479.201 66.5524V90.7244C479.201 91.3098 479.309 91.7874 479.525 92.1572C479.74 92.5269 480.141 92.8196 480.726 93.0353L481.651 93.4051V93.8672H469.865V93.4051L470.697 93.1277C471.313 92.8813 471.714 92.5885 471.899 92.2496C472.114 91.8799 472.222 91.3869 472.222 90.7706V78.6153H461.176V90.7706C461.176 91.9107 461.684 92.6964 462.701 93.1277L463.487 93.4051V93.8672H451.748Z" fill="white"/>
<path d="M192.655 137.846C191.559 137.846 190.614 137.572 189.822 137.024C189.03 136.469 188.419 135.703 187.99 134.726C187.561 133.742 187.346 132.603 187.346 131.309C187.346 129.929 187.577 128.767 188.039 127.823C188.508 126.879 189.142 126.166 189.941 125.684C190.747 125.195 191.651 124.951 192.655 124.951C193.982 124.951 195.048 125.284 195.854 125.951C196.666 126.612 197.224 127.473 197.527 128.536L195.864 128.873C195.606 128.1 195.193 127.486 194.626 127.031C194.064 126.569 193.407 126.338 192.655 126.338C192.001 126.338 191.397 126.526 190.842 126.902C190.294 127.272 189.852 127.826 189.515 128.566C189.178 129.305 189.01 130.22 189.01 131.309C189.01 132.3 189.142 133.181 189.406 133.954C189.677 134.726 190.08 135.334 190.614 135.776C191.156 136.218 191.836 136.44 192.655 136.44C193.638 136.44 194.418 136.175 194.992 135.647C195.573 135.119 195.864 134.426 195.864 133.567H197.547C197.547 134.459 197.343 135.225 196.933 135.865C196.524 136.499 195.949 136.988 195.21 137.331C194.477 137.674 193.625 137.846 192.655 137.846ZM203.911 137.846C203.059 137.846 202.3 137.658 201.633 137.281C200.973 136.905 200.451 136.347 200.068 135.608C199.685 134.868 199.494 133.957 199.494 132.874C199.494 131.785 199.685 130.874 200.068 130.141C200.451 129.401 200.973 128.843 201.633 128.467C202.3 128.091 203.059 127.902 203.911 127.902C204.756 127.902 205.509 128.091 206.169 128.467C206.836 128.843 207.358 129.401 207.734 130.141C208.117 130.874 208.308 131.785 208.308 132.874C208.308 133.957 208.117 134.868 207.734 135.608C207.358 136.347 206.836 136.905 206.169 137.281C205.509 137.658 204.756 137.846 203.911 137.846ZM203.871 136.499C204.485 136.499 205.007 136.354 205.436 136.063C205.865 135.766 206.189 135.347 206.407 134.805C206.631 134.264 206.744 133.62 206.744 132.874C206.744 131.745 206.509 130.857 206.04 130.21C205.572 129.556 204.875 129.229 203.951 129.229C203.33 129.229 202.805 129.378 202.376 129.675C201.953 129.966 201.63 130.385 201.405 130.933C201.187 131.474 201.079 132.121 201.079 132.874C201.079 133.99 201.313 134.875 201.782 135.528C202.257 136.175 202.954 136.499 203.871 136.499ZM218.051 137.608V132.042C218.051 131.138 217.833 130.451 217.398 129.982C216.968 129.507 216.381 129.269 215.635 129.269C215.067 129.269 214.575 129.424 214.159 129.735C213.743 130.045 213.423 130.491 213.198 131.072C212.974 131.646 212.862 132.333 212.862 133.132H212.267C212.267 132.029 212.413 131.088 212.703 130.309C212.994 129.53 213.416 128.936 213.971 128.526C214.532 128.11 215.212 127.902 216.011 127.902C216.757 127.902 217.394 128.071 217.922 128.407C218.457 128.738 218.867 129.213 219.151 129.834C219.434 130.454 219.576 131.19 219.576 132.042V137.608H218.051ZM211.317 137.608V128.14H212.644L212.862 130.319V137.608H211.317ZM226.559 137.846C225.74 137.846 225.007 137.638 224.36 137.222C223.72 136.799 223.211 136.215 222.835 135.469C222.465 134.723 222.28 133.865 222.28 132.894C222.28 131.857 222.465 130.966 222.835 130.22C223.205 129.474 223.71 128.903 224.35 128.507C224.997 128.104 225.734 127.902 226.559 127.902C227.279 127.902 227.893 128.048 228.401 128.338C228.909 128.629 229.319 129.022 229.629 129.517C229.939 130.012 230.154 130.573 230.273 131.2C230.398 131.821 230.435 132.465 230.382 133.132H223.528V132.181H229.362L228.906 132.478C228.926 132.088 228.903 131.699 228.837 131.309C228.777 130.92 228.662 130.563 228.49 130.24C228.319 129.91 228.078 129.645 227.767 129.447C227.457 129.249 227.061 129.15 226.579 129.15C225.971 129.15 225.463 129.305 225.054 129.616C224.644 129.926 224.337 130.335 224.133 130.844C223.928 131.346 223.825 131.89 223.825 132.478V133.112C223.825 133.772 223.925 134.363 224.123 134.885C224.327 135.406 224.631 135.819 225.034 136.123C225.437 136.426 225.945 136.578 226.559 136.578C227.173 136.578 227.678 136.43 228.074 136.132C228.47 135.835 228.711 135.396 228.797 134.815H230.402C230.303 135.443 230.078 135.984 229.728 136.44C229.378 136.888 228.933 137.235 228.391 137.479C227.85 137.724 227.239 137.846 226.559 137.846ZM236.773 137.846C236.014 137.846 235.304 137.641 234.644 137.232C233.99 136.822 233.462 136.245 233.059 135.499C232.657 134.753 232.455 133.871 232.455 132.854C232.455 131.811 232.657 130.92 233.059 130.18C233.462 129.441 233.99 128.876 234.644 128.487C235.304 128.097 236.014 127.902 236.773 127.902C237.308 127.902 237.787 127.985 238.209 128.15C238.638 128.308 239.011 128.53 239.328 128.814C239.645 129.097 239.906 129.421 240.111 129.784C240.322 130.141 240.477 130.517 240.576 130.913L238.992 131.052C238.827 130.504 238.549 130.071 238.16 129.754C237.777 129.431 237.308 129.269 236.753 129.269C236.285 129.269 235.842 129.404 235.426 129.675C235.017 129.939 234.684 130.339 234.426 130.874C234.169 131.402 234.04 132.062 234.04 132.854C234.04 133.587 234.155 134.224 234.386 134.766C234.624 135.301 234.948 135.717 235.357 136.014C235.766 136.311 236.232 136.459 236.753 136.459C237.486 136.459 238.041 136.281 238.417 135.925C238.8 135.561 238.992 135.06 238.992 134.419H240.576C240.576 135.079 240.421 135.667 240.111 136.182C239.8 136.697 239.358 137.103 238.784 137.4C238.216 137.697 237.546 137.846 236.773 137.846ZM246.571 137.846C246.056 137.846 245.593 137.747 245.184 137.549C244.775 137.351 244.451 137.054 244.213 136.657C243.976 136.261 243.857 135.766 243.857 135.172V125.506H245.382V135.132C245.382 136.109 245.838 136.598 246.749 136.598C247.02 136.598 247.28 136.568 247.531 136.509C247.789 136.449 248.076 136.36 248.393 136.241L248.611 137.351C248.274 137.496 247.937 137.615 247.601 137.707C247.27 137.8 246.927 137.846 246.571 137.846ZM242.332 129.21V128.14H248.373V129.21H242.332ZM256.969 137.608L256.771 135.528V131.468C256.771 130.616 256.59 130.005 256.226 129.636C255.863 129.259 255.319 129.071 254.592 129.071C254.183 129.071 253.81 129.13 253.473 129.249C253.143 129.368 252.879 129.553 252.681 129.804C252.489 130.048 252.394 130.365 252.394 130.755H250.67C250.67 130.068 250.839 129.517 251.175 129.101C251.512 128.678 251.974 128.374 252.562 128.19C253.156 127.998 253.833 127.902 254.592 127.902C255.319 127.902 255.962 128.025 256.524 128.269C257.085 128.513 257.524 128.903 257.841 129.437C258.158 129.966 258.316 130.656 258.316 131.507V137.608H256.969ZM253.741 137.846C252.961 137.846 252.318 137.707 251.809 137.43C251.301 137.153 250.921 136.793 250.67 136.35C250.419 135.908 250.294 135.443 250.294 134.954C250.294 134.313 250.452 133.792 250.769 133.389C251.093 132.986 251.532 132.693 252.087 132.508C252.641 132.316 253.265 132.22 253.958 132.22C254.454 132.22 254.949 132.27 255.444 132.369C255.946 132.468 256.434 132.603 256.91 132.775V133.746C256.514 133.587 256.065 133.462 255.563 133.369C255.068 133.277 254.612 133.231 254.196 133.231C253.562 133.231 253.027 133.363 252.592 133.627C252.156 133.884 251.938 134.327 251.938 134.954C251.938 135.416 252.103 135.812 252.433 136.142C252.77 136.473 253.305 136.638 254.038 136.638C254.553 136.638 255.015 136.519 255.424 136.281C255.84 136.037 256.167 135.733 256.405 135.37C256.649 135.007 256.771 134.644 256.771 134.28H257.147C257.147 134.914 257.009 135.502 256.731 136.043C256.461 136.585 256.071 137.021 255.563 137.351C255.054 137.681 254.447 137.846 253.741 137.846ZM275.327 137.608V132.042C275.327 131.138 275.109 130.451 274.673 129.982C274.244 129.507 273.663 129.269 272.93 129.269C272.072 129.269 271.415 129.603 270.959 130.269C270.503 130.93 270.276 131.844 270.276 133.013H269.563C269.563 132.161 269.645 131.415 269.81 130.774C269.982 130.134 270.229 129.603 270.553 129.18C270.876 128.751 271.269 128.431 271.731 128.219C272.194 128.008 272.719 127.902 273.306 127.902C274.052 127.902 274.689 128.071 275.218 128.407C275.752 128.738 276.162 129.213 276.446 129.834C276.73 130.454 276.872 131.19 276.872 132.042V137.608H275.327ZM262.016 137.608V128.14H263.343L263.521 130.042C263.818 129.355 264.234 128.827 264.769 128.457C265.31 128.087 265.958 127.902 266.71 127.902C267.456 127.902 268.093 128.071 268.622 128.407C269.156 128.738 269.566 129.213 269.85 129.834C270.134 130.454 270.276 131.19 270.276 132.042V137.608H268.75V132.042C268.75 131.138 268.533 130.451 268.097 129.982C267.668 129.507 267.08 129.269 266.334 129.269C265.766 129.269 265.274 129.424 264.858 129.735C264.442 130.045 264.122 130.491 263.898 131.072C263.673 131.646 263.561 132.333 263.561 133.132V137.608H262.016ZM283.974 137.846C283.122 137.846 282.363 137.658 281.696 137.281C281.035 136.905 280.514 136.347 280.131 135.608C279.748 134.868 279.556 133.957 279.556 132.874C279.556 131.785 279.748 130.874 280.131 130.141C280.514 129.401 281.035 128.843 281.696 128.467C282.363 128.091 283.122 127.902 283.974 127.902C284.819 127.902 285.571 128.091 286.232 128.467C286.899 128.843 287.42 129.401 287.796 130.141C288.179 130.874 288.371 131.785 288.371 132.874C288.371 133.957 288.179 134.868 287.796 135.608C287.42 136.347 286.899 136.905 286.232 137.281C285.571 137.658 284.819 137.846 283.974 137.846ZM283.934 136.499C284.548 136.499 285.07 136.354 285.499 136.063C285.928 135.766 286.251 135.347 286.469 134.805C286.694 134.264 286.806 133.62 286.806 132.874C286.806 131.745 286.572 130.857 286.103 130.21C285.634 129.556 284.938 129.229 284.013 129.229C283.393 129.229 282.868 129.378 282.438 129.675C282.016 129.966 281.692 130.385 281.468 130.933C281.25 131.474 281.141 132.121 281.141 132.874C281.141 133.99 281.375 134.875 281.844 135.528C282.32 136.175 283.016 136.499 283.934 136.499ZM294.786 137.846C293.868 137.846 293.102 137.717 292.488 137.46C291.874 137.195 291.409 136.836 291.092 136.38C290.775 135.918 290.607 135.39 290.587 134.795H292.072C292.105 135.396 292.346 135.849 292.795 136.152C293.251 136.449 293.868 136.598 294.647 136.598C295.057 136.598 295.433 136.532 295.776 136.4C296.12 136.268 296.394 136.086 296.598 135.855C296.803 135.624 296.906 135.363 296.906 135.073C296.906 134.703 296.77 134.413 296.499 134.201C296.229 133.99 295.796 133.805 295.202 133.647L293.36 133.052C292.561 132.801 291.947 132.458 291.518 132.022C291.095 131.58 290.884 131.052 290.884 130.438C290.884 129.672 291.221 129.058 291.894 128.596C292.568 128.133 293.452 127.902 294.548 127.902C295.71 127.902 296.612 128.14 297.252 128.615C297.893 129.091 298.226 129.685 298.252 130.398H296.727C296.668 129.982 296.457 129.669 296.093 129.457C295.73 129.239 295.215 129.13 294.548 129.13C293.908 129.13 293.406 129.276 293.043 129.566C292.686 129.85 292.508 130.167 292.508 130.517C292.508 131.171 293.069 131.653 294.192 131.963L296.074 132.597C296.886 132.841 297.506 133.161 297.936 133.557C298.371 133.954 298.589 134.459 298.589 135.073C298.589 135.548 298.434 135.997 298.124 136.42C297.813 136.842 297.374 137.186 296.806 137.45C296.239 137.714 295.565 137.846 294.786 137.846ZM304.605 126.496V125.169H314.291V126.496H309.864L310.21 126.139V137.608H308.665V126.139L309.012 126.496H304.605ZM320.551 137.608L320.353 135.528V131.468C320.353 130.616 320.171 130.005 319.808 129.636C319.445 129.259 318.9 129.071 318.174 129.071C317.765 129.071 317.392 129.13 317.055 129.249C316.725 129.368 316.461 129.553 316.263 129.804C316.071 130.048 315.976 130.365 315.976 130.755H314.252C314.252 130.068 314.421 129.517 314.757 129.101C315.094 128.678 315.556 128.374 316.144 128.19C316.738 127.998 317.415 127.902 318.174 127.902C318.9 127.902 319.544 128.025 320.105 128.269C320.667 128.513 321.106 128.903 321.423 129.437C321.74 129.966 321.898 130.656 321.898 131.507V137.608H320.551ZM317.322 137.846C316.543 137.846 315.9 137.707 315.391 137.43C314.883 137.153 314.503 136.793 314.252 136.35C314.001 135.908 313.876 135.443 313.876 134.954C313.876 134.313 314.034 133.792 314.351 133.389C314.675 132.986 315.114 132.693 315.669 132.508C316.223 132.316 316.847 132.22 317.54 132.22C318.036 132.22 318.531 132.27 319.026 132.369C319.528 132.468 320.016 132.603 320.492 132.775V133.746C320.096 133.587 319.647 133.462 319.145 133.369C318.65 133.277 318.194 133.231 317.778 133.231C317.144 133.231 316.609 133.363 316.174 133.627C315.738 133.884 315.52 134.327 315.52 134.954C315.52 135.416 315.685 135.812 316.015 136.142C316.352 136.473 316.887 136.638 317.62 136.638C318.135 136.638 318.597 136.519 319.006 136.281C319.422 136.037 319.749 135.733 319.987 135.37C320.231 135.007 320.353 134.644 320.353 134.28H320.729C320.729 134.914 320.591 135.502 320.313 136.043C320.043 136.585 319.653 137.021 319.145 137.351C318.636 137.681 318.029 137.846 317.322 137.846ZM325.598 137.608V124.099H327.143V137.608H325.598ZM334.437 137.846C333.619 137.846 332.886 137.638 332.239 137.222C331.598 136.799 331.09 136.215 330.714 135.469C330.344 134.723 330.159 133.865 330.159 132.894C330.159 131.857 330.344 130.966 330.714 130.22C331.083 129.474 331.588 128.903 332.229 128.507C332.876 128.104 333.612 127.902 334.437 127.902C335.157 127.902 335.771 128.048 336.279 128.338C336.788 128.629 337.197 129.022 337.508 129.517C337.818 130.012 338.032 130.573 338.151 131.2C338.277 131.821 338.313 132.465 338.26 133.132H331.407V132.181H337.24L336.785 132.478C336.804 132.088 336.781 131.699 336.715 131.309C336.656 130.92 336.54 130.563 336.369 130.24C336.197 129.91 335.956 129.645 335.646 129.447C335.335 129.249 334.939 129.15 334.457 129.15C333.85 129.15 333.341 129.305 332.932 129.616C332.523 129.926 332.216 130.335 332.011 130.844C331.806 131.346 331.704 131.89 331.704 132.478V133.112C331.704 133.772 331.803 134.363 332.001 134.885C332.206 135.406 332.509 135.819 332.912 136.123C333.315 136.426 333.823 136.578 334.437 136.578C335.051 136.578 335.557 136.43 335.953 136.132C336.349 135.835 336.59 135.396 336.676 134.815H338.28C338.181 135.443 337.957 135.984 337.607 136.44C337.257 136.888 336.811 137.235 336.27 137.479C335.728 137.724 335.117 137.846 334.437 137.846ZM348.059 137.608V132.042C348.059 131.138 347.841 130.451 347.405 129.982C346.976 129.507 346.388 129.269 345.642 129.269C345.074 129.269 344.582 129.424 344.166 129.735C343.75 130.045 343.43 130.491 343.206 131.072C342.981 131.646 342.869 132.333 342.869 133.132H342.275C342.275 132.029 342.42 131.088 342.71 130.309C343.001 129.53 343.424 128.936 343.978 128.526C344.539 128.11 345.219 127.902 346.018 127.902C346.764 127.902 347.402 128.071 347.93 128.407C348.465 128.738 348.874 129.213 349.158 129.834C349.442 130.454 349.584 131.19 349.584 132.042V137.608H348.059ZM341.324 137.608V128.14H342.651L342.869 130.319V137.608H341.324ZM356.19 137.846C355.675 137.846 355.213 137.747 354.803 137.549C354.394 137.351 354.071 137.054 353.833 136.657C353.595 136.261 353.476 135.766 353.476 135.172V125.506H355.001V135.132C355.001 136.109 355.457 136.598 356.368 136.598C356.639 136.598 356.9 136.568 357.151 136.509C357.408 136.449 357.695 136.36 358.012 136.241L358.23 137.351C357.893 137.496 357.557 137.615 357.22 137.707C356.89 137.8 356.546 137.846 356.19 137.846ZM351.951 129.21V128.14H357.992V129.21H351.951ZM364.152 137.846C363.3 137.846 362.541 137.658 361.874 137.281C361.214 136.905 360.692 136.347 360.309 135.608C359.927 134.868 359.735 133.957 359.735 132.874C359.735 131.785 359.927 130.874 360.309 130.141C360.692 129.401 361.214 128.843 361.874 128.467C362.541 128.091 363.3 127.902 364.152 127.902C364.997 127.902 365.75 128.091 366.41 128.467C367.077 128.843 367.599 129.401 367.975 130.141C368.358 130.874 368.549 131.785 368.549 132.874C368.549 133.957 368.358 134.868 367.975 135.608C367.599 136.347 367.077 136.905 366.41 137.281C365.75 137.658 364.997 137.846 364.152 137.846ZM364.113 136.499C364.727 136.499 365.248 136.354 365.677 136.063C366.107 135.766 366.43 135.347 366.648 134.805C366.872 134.264 366.985 133.62 366.985 132.874C366.985 131.745 366.75 130.857 366.281 130.21C365.813 129.556 365.116 129.229 364.192 129.229C363.571 129.229 363.046 129.378 362.617 129.675C362.195 129.966 361.871 130.385 361.646 130.933C361.429 131.474 361.32 132.121 361.32 132.874C361.32 133.99 361.554 134.875 362.023 135.528C362.498 136.175 363.195 136.499 364.113 136.499ZM374.965 137.846C374.047 137.846 373.281 137.717 372.667 137.46C372.053 137.195 371.587 136.836 371.271 136.38C370.954 135.918 370.785 135.39 370.765 134.795H372.251C372.284 135.396 372.525 135.849 372.974 136.152C373.43 136.449 374.047 136.598 374.826 136.598C375.235 136.598 375.612 136.532 375.955 136.4C376.298 136.268 376.572 136.086 376.777 135.855C376.982 135.624 377.084 135.363 377.084 135.073C377.084 134.703 376.949 134.413 376.678 134.201C376.407 133.99 375.975 133.805 375.381 133.647L373.539 133.052C372.74 132.801 372.126 132.458 371.696 132.022C371.274 131.58 371.063 131.052 371.063 130.438C371.063 129.672 371.399 129.058 372.073 128.596C372.746 128.133 373.631 127.902 374.727 127.902C375.889 127.902 376.79 128.14 377.431 128.615C378.071 129.091 378.405 129.685 378.431 130.398H376.906C376.846 129.982 376.635 129.669 376.272 129.457C375.909 129.239 375.394 129.13 374.727 129.13C374.087 129.13 373.585 129.276 373.222 129.566C372.865 129.85 372.687 130.167 372.687 130.517C372.687 131.171 373.248 131.653 374.37 131.963L376.252 132.597C377.064 132.841 377.685 133.161 378.114 133.557C378.55 133.954 378.768 134.459 378.768 135.073C378.768 135.548 378.613 135.997 378.302 136.42C377.992 136.842 377.553 137.186 376.985 137.45C376.417 137.714 375.744 137.846 374.965 137.846ZM392.528 137.608L392.33 135.528V131.468C392.33 130.616 392.148 130.005 391.785 129.636C391.422 129.259 390.877 129.071 390.151 129.071C389.742 129.071 389.369 129.13 389.032 129.249C388.702 129.368 388.438 129.553 388.24 129.804C388.048 130.048 387.953 130.365 387.953 130.755H386.229C386.229 130.068 386.398 129.517 386.734 129.101C387.071 128.678 387.533 128.374 388.121 128.19C388.715 127.998 389.392 127.902 390.151 127.902C390.877 127.902 391.521 128.025 392.082 128.269C392.644 128.513 393.083 128.903 393.4 129.437C393.717 129.966 393.875 130.656 393.875 131.507V137.608H392.528ZM389.299 137.846C388.52 137.846 387.877 137.707 387.368 137.43C386.86 137.153 386.48 136.793 386.229 136.35C385.978 135.908 385.853 135.443 385.853 134.954C385.853 134.313 386.011 133.792 386.328 133.389C386.652 132.986 387.091 132.693 387.645 132.508C388.2 132.316 388.824 132.22 389.517 132.22C390.013 132.22 390.508 132.27 391.003 132.369C391.505 132.468 391.993 132.603 392.469 132.775V133.746C392.073 133.587 391.624 133.462 391.122 133.369C390.627 133.277 390.171 133.231 389.755 133.231C389.121 133.231 388.586 133.363 388.151 133.627C387.715 133.884 387.497 134.327 387.497 134.954C387.497 135.416 387.662 135.812 387.992 136.142C388.329 136.473 388.864 136.638 389.597 136.638C390.112 136.638 390.574 136.519 390.983 136.281C391.399 136.037 391.726 135.733 391.964 135.37C392.208 135.007 392.33 134.644 392.33 134.28H392.706C392.706 134.914 392.568 135.502 392.29 136.043C392.02 136.585 391.63 137.021 391.122 137.351C390.613 137.681 390.006 137.846 389.299 137.846ZM406.672 137.846C405.642 137.846 404.721 137.608 403.909 137.133C403.097 136.657 402.457 135.944 401.988 134.994C401.519 134.036 401.285 132.841 401.285 131.408C401.285 129.956 401.519 128.754 401.988 127.803C402.457 126.846 403.097 126.133 403.909 125.664C404.721 125.189 405.642 124.951 406.672 124.951C407.702 124.951 408.624 125.189 409.436 125.664C410.248 126.139 410.888 126.856 411.357 127.813C411.826 128.771 412.06 129.969 412.06 131.408C412.06 132.854 411.826 134.056 411.357 135.013C410.888 135.964 410.248 136.674 409.436 137.143C408.624 137.611 407.702 137.846 406.672 137.846ZM406.672 136.42C407.841 136.42 408.762 135.994 409.436 135.142C410.116 134.29 410.456 133.039 410.456 131.389C410.456 129.771 410.116 128.526 409.436 127.655C408.762 126.777 407.841 126.338 406.672 126.338C405.517 126.338 404.596 126.777 403.909 127.655C403.229 128.533 402.889 129.784 402.889 131.408C402.889 133.052 403.229 134.3 403.909 135.152C404.596 135.997 405.517 136.42 406.672 136.42ZM419.359 137.846C418.666 137.846 418.062 137.687 417.547 137.37C417.039 137.054 416.646 136.591 416.368 135.984C416.091 135.37 415.953 134.624 415.953 133.746H416.606C416.606 134.333 416.728 134.828 416.973 135.231C417.217 135.634 417.534 135.941 417.923 136.152C418.32 136.357 418.739 136.459 419.181 136.459C419.657 136.459 420.112 136.324 420.548 136.053C420.984 135.776 421.34 135.37 421.618 134.835C421.895 134.3 422.033 133.64 422.033 132.854C422.033 132.102 421.905 131.458 421.647 130.923C421.396 130.388 421.056 129.979 420.627 129.695C420.198 129.411 419.723 129.269 419.201 129.269C418.752 129.269 418.329 129.378 417.933 129.596C417.537 129.814 417.217 130.134 416.973 130.557C416.728 130.973 416.606 131.488 416.606 132.102H415.953C415.953 131.184 416.104 130.415 416.408 129.794C416.712 129.167 417.124 128.695 417.646 128.378C418.168 128.061 418.752 127.902 419.399 127.902C420.139 127.902 420.829 128.1 421.469 128.497C422.109 128.893 422.628 129.461 423.024 130.2C423.42 130.94 423.618 131.824 423.618 132.854C423.618 133.898 423.417 134.792 423.014 135.538C422.618 136.284 422.096 136.855 421.449 137.252C420.802 137.648 420.106 137.846 419.359 137.846ZM415.061 142.263V128.14H416.349L416.606 130.359V142.263H415.061ZM430.075 137.846C429.223 137.846 428.464 137.658 427.797 137.281C427.137 136.905 426.615 136.347 426.232 135.608C425.849 134.868 425.658 133.957 425.658 132.874C425.658 131.785 425.849 130.874 426.232 130.141C426.615 129.401 427.137 128.843 427.797 128.467C428.464 128.091 429.223 127.902 430.075 127.902C430.92 127.902 431.672 128.091 432.333 128.467C433 128.843 433.521 129.401 433.898 130.141C434.28 130.874 434.472 131.785 434.472 132.874C434.472 133.957 434.28 134.868 433.898 135.608C433.521 136.347 433 136.905 432.333 137.281C431.672 137.658 430.92 137.846 430.075 137.846ZM430.035 136.499C430.649 136.499 431.171 136.354 431.6 136.063C432.029 135.766 432.353 135.347 432.57 134.805C432.795 134.264 432.907 133.62 432.907 132.874C432.907 131.745 432.673 130.857 432.204 130.21C431.735 129.556 431.039 129.229 430.114 129.229C429.494 129.229 428.969 129.378 428.54 129.675C428.117 129.966 427.793 130.385 427.569 130.933C427.351 131.474 427.242 132.121 427.242 132.874C427.242 133.99 427.477 134.875 427.945 135.528C428.421 136.175 429.117 136.499 430.035 136.499ZM437.48 137.608V128.12H439.025V137.608H437.48ZM438.55 133.33C438.55 132.128 438.665 131.131 438.897 130.339C439.128 129.54 439.464 128.946 439.907 128.556C440.356 128.16 440.9 127.962 441.541 127.962C441.752 127.962 441.944 127.978 442.115 128.011C442.294 128.038 442.472 128.081 442.65 128.14L442.551 129.665C442.366 129.606 442.165 129.556 441.947 129.517C441.729 129.47 441.534 129.447 441.363 129.447C440.801 129.447 440.349 129.609 440.006 129.933C439.662 130.25 439.412 130.699 439.253 131.28C439.101 131.861 439.025 132.544 439.025 133.33H438.55ZM447.549 137.846C447.034 137.846 446.572 137.747 446.163 137.549C445.753 137.351 445.43 137.054 445.192 136.657C444.954 136.261 444.835 135.766 444.835 135.172V125.506H446.361V135.132C446.361 136.109 446.816 136.598 447.727 136.598C447.998 136.598 448.259 136.568 448.51 136.509C448.767 136.449 449.054 136.36 449.371 136.241L449.589 137.351C449.253 137.496 448.916 137.615 448.579 137.707C448.249 137.8 447.906 137.846 447.549 137.846ZM443.31 129.21V128.14H449.352V129.21H443.31ZM458.522 128.12H460.067V137.608H458.522V128.12ZM451.807 128.12H453.352V134.023C453.352 134.815 453.544 135.416 453.927 135.825C454.316 136.235 454.871 136.44 455.591 136.44C456.185 136.44 456.7 136.281 457.136 135.964C457.578 135.647 457.918 135.211 458.156 134.657C458.4 134.096 458.522 133.455 458.522 132.735H459.096C459.096 133.798 458.941 134.706 458.631 135.459C458.327 136.212 457.895 136.789 457.334 137.192C456.779 137.588 456.125 137.786 455.373 137.786C454.66 137.786 454.036 137.654 453.501 137.39C452.966 137.126 452.55 136.727 452.253 136.192C451.956 135.65 451.807 134.967 451.807 134.142V128.12ZM470.812 137.608V132.042C470.812 131.138 470.594 130.451 470.158 129.982C469.729 129.507 469.142 129.269 468.396 129.269C467.828 129.269 467.336 129.424 466.92 129.735C466.504 130.045 466.184 130.491 465.959 131.072C465.735 131.646 465.622 132.333 465.622 133.132H465.028C465.028 132.029 465.174 131.088 465.464 130.309C465.755 129.53 466.177 128.936 466.732 128.526C467.293 128.11 467.973 127.902 468.772 127.902C469.518 127.902 470.155 128.071 470.683 128.407C471.218 128.738 471.628 129.213 471.911 129.834C472.195 130.454 472.337 131.19 472.337 132.042V137.608H470.812ZM464.077 137.608V128.14H465.405L465.622 130.319V137.608H464.077ZM476.903 125.902C476.586 125.902 476.335 125.813 476.151 125.634C475.966 125.45 475.873 125.209 475.873 124.911C475.873 124.621 475.966 124.39 476.151 124.218C476.335 124.046 476.586 123.961 476.903 123.961C477.22 123.961 477.471 124.046 477.656 124.218C477.841 124.39 477.933 124.621 477.933 124.911C477.933 125.209 477.841 125.45 477.656 125.634C477.471 125.813 477.22 125.902 476.903 125.902ZM476.131 137.608V128.12H477.676V137.608H476.131ZM485.319 137.846C484.553 137.846 483.85 137.641 483.209 137.232C482.569 136.816 482.057 136.235 481.674 135.489C481.291 134.736 481.1 133.851 481.1 132.834C481.1 131.824 481.288 130.949 481.664 130.21C482.04 129.47 482.539 128.903 483.16 128.507C483.787 128.104 484.473 127.902 485.22 127.902C485.913 127.902 486.52 128.071 487.042 128.407C487.57 128.744 487.979 129.229 488.27 129.863C488.56 130.497 488.706 131.263 488.706 132.161H488.111C488.111 131.534 487.986 131.006 487.735 130.576C487.491 130.147 487.171 129.824 486.774 129.606C486.378 129.381 485.952 129.269 485.497 129.269C484.982 129.269 484.51 129.414 484.081 129.705C483.658 129.989 483.318 130.398 483.061 130.933C482.81 131.461 482.684 132.095 482.684 132.834C482.684 133.587 482.81 134.234 483.061 134.776C483.318 135.317 483.658 135.733 484.081 136.024C484.51 136.314 484.982 136.459 485.497 136.459C485.926 136.459 486.339 136.347 486.735 136.123C487.138 135.898 487.468 135.571 487.725 135.142C487.983 134.706 488.111 134.181 488.111 133.567H488.706C488.706 134.485 488.554 135.264 488.25 135.905C487.953 136.539 487.547 137.021 487.032 137.351C486.524 137.681 485.952 137.846 485.319 137.846ZM488.369 137.608L488.111 135.39V124.099H489.656V137.608H488.369ZM499.536 137.608L499.338 135.528V131.468C499.338 130.616 499.156 130.005 498.793 129.636C498.43 129.259 497.885 129.071 497.159 129.071C496.75 129.071 496.377 129.13 496.04 129.249C495.71 129.368 495.446 129.553 495.248 129.804C495.056 130.048 494.96 130.365 494.96 130.755H493.237C493.237 130.068 493.406 129.517 493.742 129.101C494.079 128.678 494.541 128.374 495.129 128.19C495.723 127.998 496.4 127.902 497.159 127.902C497.885 127.902 498.529 128.025 499.09 128.269C499.652 128.513 500.091 128.903 500.408 129.437C500.725 129.966 500.883 130.656 500.883 131.507V137.608H499.536ZM496.307 137.846C495.528 137.846 494.885 137.707 494.376 137.43C493.868 137.153 493.488 136.793 493.237 136.35C492.986 135.908 492.861 135.443 492.861 134.954C492.861 134.313 493.019 133.792 493.336 133.389C493.66 132.986 494.099 132.693 494.653 132.508C495.208 132.316 495.832 132.22 496.525 132.22C497.02 132.22 497.516 132.27 498.011 132.369C498.513 132.468 499.001 132.603 499.477 132.775V133.746C499.08 133.587 498.631 133.462 498.13 133.369C497.635 133.277 497.179 133.231 496.763 133.231C496.129 133.231 495.594 133.363 495.159 133.627C494.723 133.884 494.505 134.327 494.505 134.954C494.505 135.416 494.67 135.812 495 136.142C495.337 136.473 495.872 136.638 496.605 136.638C497.12 136.638 497.582 136.519 497.991 136.281C498.407 136.037 498.734 135.733 498.972 135.37C499.216 135.007 499.338 134.644 499.338 134.28H499.714C499.714 134.914 499.576 135.502 499.298 136.043C499.028 136.585 498.638 137.021 498.13 137.351C497.621 137.681 497.014 137.846 496.307 137.846ZM507.97 137.846C507.204 137.846 506.501 137.641 505.86 137.232C505.22 136.816 504.708 136.235 504.325 135.489C503.942 134.736 503.751 133.851 503.751 132.834C503.751 131.824 503.939 130.949 504.315 130.21C504.692 129.47 505.19 128.903 505.811 128.507C506.438 128.104 507.125 127.902 507.871 127.902C508.564 127.902 509.171 128.071 509.693 128.407C510.221 128.744 510.631 129.229 510.921 129.863C511.212 130.497 511.357 131.263 511.357 132.161H510.763C510.763 131.534 510.637 131.006 510.386 130.576C510.142 130.147 509.822 129.824 509.426 129.606C509.029 129.381 508.604 129.269 508.148 129.269C507.633 129.269 507.161 129.414 506.732 129.705C506.309 129.989 505.969 130.398 505.712 130.933C505.461 131.461 505.335 132.095 505.335 132.834C505.335 133.587 505.461 134.234 505.712 134.776C505.969 135.317 506.309 135.733 506.732 136.024C507.161 136.314 507.633 136.459 508.148 136.459C508.577 136.459 508.99 136.347 509.386 136.123C509.789 135.898 510.119 135.571 510.376 135.142C510.634 134.706 510.763 134.181 510.763 133.567H511.357C511.357 134.485 511.205 135.264 510.901 135.905C510.604 136.539 510.198 137.021 509.683 137.351C509.175 137.681 508.604 137.846 507.97 137.846ZM511.02 137.608L510.763 135.39V124.099H512.308V137.608H511.02ZM519.612 137.846C518.794 137.846 518.061 137.638 517.414 137.222C516.773 136.799 516.265 136.215 515.888 135.469C515.519 134.723 515.334 133.865 515.334 132.894C515.334 131.857 515.519 130.966 515.888 130.22C516.258 129.474 516.763 128.903 517.404 128.507C518.051 128.104 518.787 127.902 519.612 127.902C520.332 127.902 520.946 128.048 521.454 128.338C521.963 128.629 522.372 129.022 522.682 129.517C522.993 130.012 523.207 130.573 523.326 131.2C523.452 131.821 523.488 132.465 523.435 133.132H516.582V132.181H522.415L521.959 132.478C521.979 132.088 521.956 131.699 521.89 131.309C521.831 130.92 521.715 130.563 521.543 130.24C521.372 129.91 521.131 129.645 520.821 129.447C520.51 129.249 520.114 129.15 519.632 129.15C519.025 129.15 518.516 129.305 518.107 129.616C517.697 129.926 517.39 130.335 517.186 130.844C516.981 131.346 516.879 131.89 516.879 132.478V133.112C516.879 133.772 516.978 134.363 517.176 134.885C517.381 135.406 517.684 135.819 518.087 136.123C518.49 136.426 518.998 136.578 519.612 136.578C520.226 136.578 520.731 136.43 521.128 136.132C521.524 135.835 521.765 135.396 521.851 134.815H523.455C523.356 135.443 523.131 135.984 522.781 136.44C522.432 136.888 521.986 137.235 521.444 137.479C520.903 137.724 520.292 137.846 519.612 137.846ZM529.906 137.846C528.988 137.846 528.222 137.717 527.608 137.46C526.994 137.195 526.529 136.836 526.212 136.38C525.895 135.918 525.726 135.39 525.706 134.795H527.192C527.225 135.396 527.466 135.849 527.915 136.152C528.371 136.449 528.988 136.598 529.767 136.598C530.176 136.598 530.553 136.532 530.896 136.4C531.239 136.268 531.513 136.086 531.718 135.855C531.923 135.624 532.025 135.363 532.025 135.073C532.025 134.703 531.89 134.413 531.619 134.201C531.348 133.99 530.916 133.805 530.322 133.647L528.48 133.052C527.681 132.801 527.067 132.458 526.637 132.022C526.215 131.58 526.004 131.052 526.004 130.438C526.004 129.672 526.34 129.058 527.014 128.596C527.687 128.133 528.572 127.902 529.668 127.902C530.83 127.902 531.731 128.14 532.372 128.615C533.012 129.091 533.346 129.685 533.372 130.398H531.847C531.787 129.982 531.576 129.669 531.213 129.457C530.85 129.239 530.335 129.13 529.668 129.13C529.028 129.13 528.526 129.276 528.163 129.566C527.806 129.85 527.628 130.167 527.628 130.517C527.628 131.171 528.189 131.653 529.311 131.963L531.193 132.597C532.005 132.841 532.626 133.161 533.055 133.557C533.491 133.954 533.709 134.459 533.709 135.073C533.709 135.548 533.554 135.997 533.243 136.42C532.933 136.842 532.494 137.186 531.926 137.45C531.358 137.714 530.685 137.846 529.906 137.846Z" fill="white"/>
</g>
<defs>
<clipPath id="clip0_1_9">
<rect width="541" height="160" fill="white"/>
</clipPath>
<clipPath id="clip1_1_9">
<rect width="165.064" height="165.064" fill="white" transform="translate(4.76553 -0.0320587)"/>
</clipPath>
<clipPath id="clip2_1_9">
<rect width="165.536" height="148.412" fill="white" transform="translate(4.76553 5.44003)"/>
</clipPath>
</defs>
</svg>
