<svg width="476" height="114" viewBox="0 0 476 114" fill="none" xmlns="http://www.w3.org/2000/svg">
<g clip-path="url(#clip0_1_9)">
<g clip-path="url(#clip1_1_9)">
<path fill-rule="evenodd" clip-rule="evenodd" d="M46.4409 14.6496L45.8365 14.6447C42.8186 14.6426 39.7767 14.9931 36.7723 15.7091C15.9445 20.6793 3.08955 41.5415 8.08423 62.268C12.3373 79.9177 28.1721 91.8149 45.6398 91.8874L46.1199 91.8868C49.0106 91.8618 51.9424 91.5148 54.8709 90.8149C67.2157 87.8702 77.3333 79.1019 81.9589 67.3367L78.0086 65.7974C73.8875 76.2766 64.8766 84.0865 53.8805 86.7121C51.2731 87.3336 48.6623 87.6444 46.087 87.6652H45.6587C30.1016 87.6016 15.9979 77.0051 12.2105 61.2847C7.76151 42.8236 19.2115 24.2431 37.7622 19.8156C40.4377 19.1774 43.1472 18.865 45.8354 18.8671L46.3724 18.8714C54.9684 19.0085 63.3245 22.3367 69.6912 28.3869L72.6217 25.3328C65.4716 18.5399 56.0906 14.8032 46.4409 14.6504V14.6496ZM45.9104 27.4862L45.5354 27.4841C43.5389 27.4883 41.5289 27.7216 39.5465 28.1944C25.6555 31.5085 17.084 45.4231 20.4133 59.2451C23.2501 71.016 33.8114 78.951 45.4593 78.998L45.7804 78.9974C47.7086 78.9819 49.6627 78.7502 51.6158 78.2844C59.5464 76.3913 66.1155 70.8906 69.3455 63.4381L65.45 61.7659C62.7495 67.9963 57.2567 72.5966 50.6265 74.1786C48.9937 74.5684 47.3593 74.7615 45.7478 74.7752L45.4801 74.7763C35.7406 74.7353 26.9105 68.1015 24.5395 58.261C21.7547 46.7044 28.9218 35.0721 40.5357 32.3002C42.1935 31.905 43.8731 31.7092 45.5437 31.7065L45.8562 31.7085C50.7569 31.77 55.5511 33.4897 59.4035 36.6724L62.1138 33.424C57.5049 29.6173 51.7719 27.5604 45.9104 27.4862ZM45.8962 40.3907L45.5745 40.3836C44.4998 40.3716 43.4195 40.491 42.3583 40.7448C35.2878 42.4319 30.924 49.5139 32.6195 56.55C34.0763 62.5966 39.5381 66.6543 45.5326 66.6047L45.8593 66.5976C46.7336 66.5694 47.6186 66.4528 48.5028 66.2407C51.27 65.5813 53.7481 64.0461 55.5656 61.8678L52.3027 59.1708C51.0698 60.648 49.3894 61.6883 47.5128 62.1365C46.9141 62.2793 46.3147 62.3584 45.7216 62.3775L45.5 62.3825C41.4353 62.4157 37.7327 59.6648 36.7456 55.5655C35.5956 50.7954 38.5538 45.9935 43.3474 44.8491C44.0675 44.6781 44.7998 44.5968 45.5278 44.6053L45.7465 44.6102C47.2729 44.6639 48.7743 45.1063 50.099 45.9149L52.3171 42.3159C50.3617 41.1235 48.1482 40.4699 45.8962 40.3907ZM65.8604 50.5225L74.6643 55.5357C75.0871 55.776 75.5809 55.8651 76.0615 55.7859L91.5582 53.2591C92.4497 53.1135 93.1506 52.423 93.3059 51.5388C93.4605 50.6532 93.036 49.7676 92.2466 49.3308L83.0999 44.2667L89.3436 36.9169C89.6452 36.562 89.8082 36.138 89.8386 35.7076C89.8846 35.4736 89.8905 35.2284 89.8511 34.9789C89.6672 33.8289 88.5788 33.043 87.4228 33.2261L72.1644 35.6398C71.5559 35.7358 71.0197 36.0921 70.6943 36.6137L64.5421 46.4996L46.4615 51.1156C45.3272 51.4054 44.6425 52.5561 44.9337 53.6848C45.2242 54.8128 46.3805 55.4949 47.5147 55.2051L65.8604 50.5225ZM73.7896 39.657L68.9586 47.4224L76.1176 51.4992C76.1176 51.4992 84.8613 50.0722 84.8613 50.0736L78.7854 46.7085C78.2301 46.401 77.8438 45.8632 77.7292 45.2433C77.6151 44.622 77.7859 43.9824 78.1961 43.5004L82.6515 38.2561L73.7896 39.657Z" fill="#4D3EFC"/>
</g>
<path d="M137.916 48.6992C134.927 48.6992 132.216 48.0983 129.781 46.8967C127.378 45.6642 125.468 43.8463 124.05 41.4429C122.633 39.0396 121.924 36.0971 121.924 32.6153C121.924 29.9655 122.356 27.6392 123.218 25.6364C124.081 23.6336 125.252 21.9544 126.731 20.5986C128.241 19.2429 129.966 18.2261 131.907 17.5483C133.879 16.8704 135.959 16.5315 138.147 16.5315C139.903 16.5315 141.521 16.7317 143 17.1323C144.479 17.5329 145.865 18.0875 147.159 18.7961L147.344 24.4809H146.882L144.571 20.7835C144.263 20.1981 143.924 19.6743 143.554 19.2121C143.185 18.7191 142.722 18.3494 142.168 18.1029C141.706 17.8872 141.243 17.7331 140.781 17.6407C140.35 17.5174 139.795 17.4558 139.117 17.4558C137.33 17.4558 135.697 17.9334 134.218 18.8886C132.77 19.8437 131.599 21.4306 130.706 23.649C129.843 25.8367 129.412 28.8408 129.412 32.6615C129.412 36.4514 129.828 39.4556 130.66 41.674C131.491 43.8617 132.616 45.4331 134.033 46.3883C135.482 47.3126 137.099 47.7748 138.886 47.7748C139.872 47.7748 140.658 47.7132 141.243 47.5899C141.829 47.4359 142.414 47.2202 143 46.9429C143.585 46.6964 144.032 46.342 144.34 45.8799C144.648 45.3869 144.925 44.8631 145.172 44.3085L147.206 39.7791H147.668L147.529 46.3883C146.235 47.0661 144.787 47.6207 143.185 48.0521C141.582 48.4835 139.826 48.6992 137.916 48.6992ZM161.466 48.5605C159.124 48.5605 157.09 48.0829 155.365 47.1277C153.639 46.1418 152.299 44.7552 151.344 42.9681C150.42 41.181 149.957 39.0858 149.957 36.6825C149.957 34.2792 150.45 32.1993 151.436 30.4431C152.453 28.6868 153.824 27.3311 155.55 26.3759C157.306 25.4207 159.278 24.9431 161.466 24.9431C163.653 24.9431 165.61 25.4207 167.335 26.3759C169.061 27.3002 170.416 28.6406 171.402 30.3968C172.419 32.1531 172.928 34.2483 172.928 36.6825C172.928 39.1166 172.45 41.2273 171.495 43.0143C170.571 44.7706 169.246 46.1418 167.52 47.1277C165.826 48.0829 163.807 48.5605 161.466 48.5605ZM161.466 47.6361C162.544 47.6361 163.407 47.328 164.054 46.7118C164.701 46.0955 165.163 45.0017 165.44 43.4303C165.748 41.8589 165.903 39.6404 165.903 36.7749C165.903 33.8786 165.748 31.6447 165.44 30.0733C165.163 28.5019 164.701 27.4081 164.054 26.7918C163.407 26.1756 162.544 25.8675 161.466 25.8675C160.387 25.8675 159.509 26.1756 158.831 26.7918C158.184 27.4081 157.707 28.5019 157.398 30.0733C157.121 31.6447 156.982 33.8786 156.982 36.7749C156.982 39.6404 157.121 41.8589 157.398 43.4303C157.707 45.0017 158.184 46.0955 158.831 46.7118C159.509 47.328 160.387 47.6361 161.466 47.6361ZM174.958 47.8672V47.4051L175.605 47.2202C176.683 46.9121 177.222 46.1572 177.222 44.9555V30.4893C177.222 29.8114 177.114 29.3184 176.899 29.0103C176.683 28.6714 176.267 28.4403 175.651 28.317L174.958 28.1322V27.67L182.861 24.9893L183.323 25.4515L183.693 28.2246C184.771 27.2694 185.988 26.4837 187.344 25.8675C188.7 25.2512 190.04 24.9431 191.365 24.9431C193.399 24.9431 194.955 25.4977 196.033 26.607C197.142 27.7162 197.697 29.4109 197.697 31.691V45.0017C197.697 46.2034 198.282 46.9583 199.453 47.2664L199.869 47.4051V47.8672H188.962V47.4051L189.563 47.2202C190.641 46.8813 191.18 46.1264 191.18 44.9555V30.212C191.18 28.24 190.194 27.254 188.222 27.254C186.866 27.254 185.388 27.9319 183.785 29.2876V45.0017C183.785 46.2034 184.324 46.9583 185.403 47.2664L185.819 47.4051V47.8672H174.958ZM211.476 48.5605C209.658 48.5605 208.025 48.1599 206.577 47.3588C205.128 46.5269 203.973 45.2636 203.11 43.569C202.278 41.8435 201.862 39.6404 201.862 36.9598C201.862 34.2483 202.34 32.0145 203.295 30.2582C204.25 28.4711 205.513 27.1462 207.085 26.2835C208.656 25.3899 210.366 24.9431 212.215 24.9431C213.294 24.9431 214.326 25.051 215.312 25.2667C216.298 25.4823 217.176 25.8059 217.946 26.2372V20.2289C217.946 19.5818 217.838 19.1043 217.623 18.7961C217.438 18.488 217.022 18.2723 216.375 18.1491L215.497 17.9642V17.502L223.908 15.4684L224.417 15.8844L224.232 22.3549V44.9555C224.232 45.5717 224.34 46.0801 224.555 46.4807C224.771 46.8504 225.172 47.1123 225.757 47.2664L226.173 47.4051V47.8672L218.27 48.3756L217.854 46.7118C217.022 47.2664 216.067 47.7132 214.988 48.0521C213.941 48.391 212.77 48.5605 211.476 48.5605ZM214.156 46.8504C215.45 46.8504 216.637 46.4653 217.715 45.695V27.3465C216.575 26.607 215.404 26.2372 214.202 26.2372C212.723 26.2372 211.46 27.1 210.413 28.8254C209.365 30.5201 208.841 33.2007 208.841 36.8674C208.841 40.534 209.334 43.1222 210.32 44.632C211.306 46.111 212.585 46.8504 214.156 46.8504ZM234.513 48.5605C232.726 48.5605 231.216 48.0521 229.984 47.0353C228.782 46.0185 228.181 44.5549 228.181 42.6446C228.181 41.1964 228.921 39.8715 230.4 38.6699C231.879 37.4374 234.205 36.513 237.379 35.8968C237.872 35.8043 238.426 35.7119 239.042 35.6195C239.659 35.4962 240.306 35.373 240.984 35.2497V31.5985C240.984 29.5033 240.722 28.0397 240.198 27.2078C239.705 26.3451 238.919 25.9137 237.841 25.9137C237.101 25.9137 236.516 26.1602 236.085 26.6532C235.653 27.1154 235.376 27.9319 235.253 29.1027L235.16 29.6111C235.099 30.9361 234.775 31.9066 234.19 32.5229C233.604 33.1391 232.88 33.4472 232.017 33.4472C231.216 33.4472 230.554 33.2007 230.03 32.7077C229.506 32.2148 229.244 31.5523 229.244 30.7204C229.244 29.4571 229.676 28.3941 230.538 27.5313C231.432 26.6686 232.603 26.0215 234.051 25.5902C235.499 25.1588 237.07 24.9431 238.765 24.9431C241.507 24.9431 243.618 25.621 245.097 26.9767C246.607 28.3016 247.362 30.4739 247.362 33.4935V43.7076C247.362 45.0942 248.009 45.7874 249.303 45.7874H250.32L250.736 46.1572C250.15 46.8967 249.503 47.4667 248.794 47.8672C248.117 48.2678 247.146 48.4681 245.883 48.4681C244.527 48.4681 243.449 48.1599 242.647 47.5437C241.877 46.8967 241.369 46.0493 241.122 45.0017C240.198 45.9877 239.243 46.835 238.257 47.5437C237.302 48.2216 236.054 48.5605 234.513 48.5605ZM237.332 45.7412C237.949 45.7412 238.519 45.6026 239.042 45.3252C239.597 45.0171 240.244 44.5549 240.984 43.9387V36.1741C240.675 36.2357 240.367 36.2973 240.059 36.359C239.751 36.4206 239.397 36.4822 238.996 36.5438C237.579 36.9136 236.439 37.5452 235.576 38.4388C234.744 39.3015 234.328 40.4724 234.328 41.9513C234.328 43.2146 234.621 44.1698 235.206 44.8168C235.792 45.4331 236.5 45.7412 237.332 45.7412ZM261.485 48.5605C259.667 48.5605 258.034 48.1599 256.586 47.3588C255.138 46.5269 253.982 45.2636 253.119 43.569C252.288 41.8435 251.872 39.6404 251.872 36.9598C251.872 34.2483 252.349 32.0145 253.304 30.2582C254.259 28.4711 255.523 27.1462 257.094 26.2835C258.666 25.3899 260.376 24.9431 262.224 24.9431C263.303 24.9431 264.335 25.051 265.321 25.2667C266.307 25.4823 267.185 25.8059 267.955 26.2372V20.2289C267.955 19.5818 267.848 19.1043 267.632 18.7961C267.447 18.488 267.031 18.2723 266.384 18.1491L265.506 17.9642V17.502L273.918 15.4684L274.426 15.8844L274.241 22.3549V44.9555C274.241 45.5717 274.349 46.0801 274.565 46.4807C274.78 46.8504 275.181 47.1123 275.766 47.2664L276.182 47.4051V47.8672L268.279 48.3756L267.863 46.7118C267.031 47.2664 266.076 47.7132 264.997 48.0521C263.95 48.391 262.779 48.5605 261.485 48.5605ZM264.166 46.8504C265.46 46.8504 266.646 46.4653 267.724 45.695V27.3465C266.584 26.607 265.413 26.2372 264.212 26.2372C262.733 26.2372 261.469 27.1 260.422 28.8254C259.374 30.5201 258.85 33.2007 258.85 36.8674C258.85 40.534 259.343 43.1222 260.329 44.632C261.315 46.111 262.594 46.8504 264.166 46.8504ZM289.919 48.5605C287.577 48.5605 285.544 48.0829 283.818 47.1277C282.093 46.1418 280.752 44.7552 279.797 42.9681C278.873 41.181 278.411 39.0858 278.411 36.6825C278.411 34.2792 278.904 32.1993 279.89 30.4431C280.907 28.6868 282.278 27.3311 284.003 26.3759C285.759 25.4207 287.731 24.9431 289.919 24.9431C292.107 24.9431 294.063 25.4207 295.789 26.3759C297.514 27.3002 298.87 28.6406 299.856 30.3968C300.873 32.1531 301.381 34.2483 301.381 36.6825C301.381 39.1166 300.903 41.2273 299.948 43.0143C299.024 44.7706 297.699 46.1418 295.974 47.1277C294.279 48.0829 292.261 48.5605 289.919 48.5605ZM289.919 47.6361C290.997 47.6361 291.86 47.328 292.507 46.7118C293.154 46.0955 293.616 45.0017 293.894 43.4303C294.202 41.8589 294.356 39.6404 294.356 36.7749C294.356 33.8786 294.202 31.6447 293.894 30.0733C293.616 28.5019 293.154 27.4081 292.507 26.7918C291.86 26.1756 290.997 25.8675 289.919 25.8675C288.841 25.8675 287.962 26.1756 287.285 26.7918C286.638 27.4081 286.16 28.5019 285.852 30.0733C285.575 31.6447 285.436 33.8786 285.436 36.7749C285.436 39.6404 285.575 41.8589 285.852 43.4303C286.16 45.0017 286.638 46.0955 287.285 46.7118C287.962 47.328 288.841 47.6361 289.919 47.6361ZM313.569 47.8672V47.4051L314.539 47.0815C315.155 46.8658 315.556 46.5885 315.741 46.2496C315.926 45.8799 316.018 45.3715 316.018 44.7244V20.5524C316.018 19.9362 315.926 19.4586 315.741 19.1197C315.587 18.7499 315.217 18.4572 314.632 18.2415L313.569 17.8256V17.3634H326.787C330.423 17.3634 333.211 18.0567 335.152 19.4432C337.093 20.7989 338.064 22.6939 338.064 25.128C338.064 26.4837 337.556 27.8395 336.539 29.1952C335.522 30.5509 333.92 31.5985 331.732 32.338L338.156 45.0942C338.434 45.618 338.742 46.0493 339.081 46.3883C339.451 46.6964 339.928 46.9737 340.514 47.2202L341.114 47.4513V47.8672H332.841L326.001 33.3086H322.858V44.7244C322.858 45.3098 322.951 45.7874 323.136 46.1572C323.321 46.5269 323.706 46.8042 324.291 46.9891L325.4 47.4051V47.8672H313.569ZM322.858 32.3842H325.077C327.295 32.3842 328.897 31.7988 329.883 30.6279C330.869 29.4263 331.362 27.6546 331.362 25.3129C331.362 22.9404 330.9 21.1841 329.976 20.044C329.052 18.8732 327.496 18.2877 325.308 18.2877H322.858V32.3842ZM342.59 47.8672V47.4051L343.515 47.0353C344.131 46.8196 344.531 46.5269 344.716 46.1572C344.932 45.7874 345.04 45.3098 345.04 44.7244V20.5524C345.04 19.9362 344.932 19.4432 344.716 19.0734C344.531 18.7037 344.131 18.411 343.515 18.1953L342.59 17.8256V17.3634H354.33V17.8256L353.544 18.1491C352.958 18.3648 352.558 18.6575 352.342 19.0272C352.126 19.3662 352.019 19.8437 352.019 20.46V31.691H363.065V20.46C363.065 19.8437 362.957 19.3662 362.741 19.0272C362.556 18.6575 362.156 18.3648 361.54 18.1491L360.708 17.8256V17.3634H372.493V17.8256L371.569 18.1953C370.983 18.411 370.583 18.7037 370.367 19.0734C370.151 19.4432 370.044 19.9362 370.044 20.5524V44.7244C370.044 45.3098 370.151 45.7874 370.367 46.1572C370.583 46.5269 370.983 46.8196 371.569 47.0353L372.493 47.4051V47.8672H360.708V47.4051L361.54 47.1277C362.156 46.8813 362.556 46.5885 362.741 46.2496C362.957 45.8799 363.065 45.3869 363.065 44.7706V32.6153H352.019V44.7706C352.019 45.9107 352.527 46.6964 353.544 47.1277L354.33 47.4051V47.8672H342.59Z" fill="#4D3EFC"/>
<path d="M127.655 91.8458C126.559 91.8458 125.614 91.5718 124.822 91.0238C124.03 90.4692 123.419 89.7033 122.99 88.7261C122.561 87.7424 122.346 86.6034 122.346 85.3093C122.346 83.9294 122.577 82.7673 123.039 81.8232C123.508 80.879 124.142 80.1659 124.941 79.6839C125.747 79.1953 126.651 78.951 127.655 78.951C128.982 78.951 130.048 79.2845 130.854 79.9513C131.666 80.6116 132.224 81.4732 132.527 82.5362L130.864 82.873C130.606 82.1005 130.193 81.4864 129.626 81.0308C129.064 80.5687 128.407 80.3376 127.655 80.3376C127.001 80.3376 126.397 80.5257 125.842 80.9021C125.294 81.2718 124.852 81.8265 124.515 82.5659C124.178 83.3054 124.01 84.2199 124.01 85.3093C124.01 86.2997 124.142 87.1811 124.406 87.9536C124.677 88.7261 125.08 89.3336 125.614 89.7759C126.156 90.2183 126.836 90.4395 127.655 90.4395C128.638 90.4395 129.418 90.1754 129.992 89.6472C130.573 89.119 130.864 88.4257 130.864 87.5674H132.547C132.547 88.4587 132.343 89.2246 131.933 89.8651C131.524 90.4989 130.949 90.9875 130.21 91.3308C129.477 91.6742 128.625 91.8458 127.655 91.8458ZM138.911 91.8458C138.059 91.8458 137.3 91.6577 136.633 91.2813C135.973 90.905 135.451 90.3471 135.068 89.6076C134.685 88.8681 134.494 87.9569 134.494 86.8741C134.494 85.7847 134.685 84.8735 135.068 84.1407C135.451 83.4012 135.973 82.8432 136.633 82.4669C137.3 82.0906 138.059 81.9024 138.911 81.9024C139.756 81.9024 140.509 82.0906 141.169 82.4669C141.836 82.8432 142.358 83.4012 142.734 84.1407C143.117 84.8735 143.308 85.7847 143.308 86.8741C143.308 87.9569 143.117 88.8681 142.734 89.6076C142.358 90.3471 141.836 90.905 141.169 91.2813C140.509 91.6577 139.756 91.8458 138.911 91.8458ZM138.871 90.4989C139.485 90.4989 140.007 90.3537 140.436 90.0632C140.865 89.766 141.189 89.3468 141.407 88.8054C141.631 88.264 141.744 87.6202 141.744 86.8741C141.744 85.7451 141.509 84.857 141.04 84.21C140.572 83.5563 139.875 83.2295 138.951 83.2295C138.33 83.2295 137.805 83.3781 137.376 83.6752C136.953 83.9657 136.63 84.3849 136.405 84.933C136.187 85.4744 136.079 86.1214 136.079 86.8741C136.079 87.9899 136.313 88.8747 136.782 89.5283C137.257 90.1754 137.954 90.4989 138.871 90.4989ZM153.051 91.6082V86.0422C153.051 85.1376 152.833 84.451 152.398 83.9822C151.968 83.5068 151.381 83.2691 150.635 83.2691C150.067 83.2691 149.575 83.4243 149.159 83.7346C148.743 84.0449 148.423 84.4906 148.198 85.0716C147.974 85.646 147.862 86.3327 147.862 87.1316H147.267C147.267 86.029 147.413 85.0881 147.703 84.309C147.994 83.5299 148.416 82.9357 148.971 82.5263C149.532 82.1104 150.212 81.9024 151.011 81.9024C151.757 81.9024 152.394 82.0707 152.922 82.4075C153.457 82.7376 153.867 83.213 154.151 83.8336C154.434 84.4543 154.576 85.1905 154.576 86.0422V91.6082H153.051ZM146.317 91.6082V82.1401H147.644L147.862 84.3189V91.6082H146.317ZM161.559 91.8458C160.74 91.8458 160.007 91.6379 159.36 91.2219C158.72 90.7993 158.211 90.215 157.835 89.4689C157.465 88.7228 157.28 87.8645 157.28 86.8939C157.28 85.8573 157.465 84.966 157.835 84.2199C158.205 83.4738 158.71 82.9027 159.35 82.5065C159.997 82.1038 160.734 81.9024 161.559 81.9024C162.279 81.9024 162.893 82.0476 163.401 82.3382C163.909 82.6287 164.319 83.0215 164.629 83.5167C164.939 84.0119 165.154 84.5731 165.273 85.2004C165.398 85.821 165.435 86.4648 165.382 87.1316H158.528V86.1808H164.362L163.906 86.478C163.926 86.0884 163.903 85.6989 163.837 85.3093C163.777 84.9198 163.662 84.5632 163.49 84.2397C163.319 83.9096 163.078 83.6455 162.767 83.4474C162.457 83.2493 162.061 83.1503 161.579 83.1503C160.971 83.1503 160.463 83.3054 160.054 83.6157C159.644 83.9261 159.337 84.3354 159.133 84.8438C158.928 85.3456 158.825 85.8903 158.825 86.478V87.1118C158.825 87.7721 158.925 88.363 159.123 88.8846C159.327 89.4062 159.631 89.8189 160.034 90.1226C160.437 90.4263 160.945 90.5782 161.559 90.5782C162.173 90.5782 162.678 90.4296 163.074 90.1325C163.47 89.8354 163.711 89.3963 163.797 88.8153H165.402C165.303 89.4425 165.078 89.9839 164.728 90.4395C164.378 90.8885 163.933 91.2351 163.391 91.4794C162.85 91.7237 162.239 91.8458 161.559 91.8458ZM171.773 91.8458C171.014 91.8458 170.304 91.6412 169.644 91.2318C168.99 90.8224 168.462 90.2447 168.059 89.4986C167.657 88.7525 167.455 87.8711 167.455 86.8543C167.455 85.8111 167.657 84.9198 168.059 84.1803C168.462 83.4408 168.99 82.8763 169.644 82.4867C170.304 82.0972 171.014 81.9024 171.773 81.9024C172.308 81.9024 172.787 81.9849 173.209 82.15C173.638 82.3084 174.011 82.5296 174.328 82.8135C174.645 83.0974 174.906 83.421 175.111 83.7841C175.322 84.1407 175.477 84.517 175.576 84.9132L173.992 85.0518C173.827 84.5038 173.549 84.0713 173.16 83.7544C172.777 83.4309 172.308 83.2691 171.753 83.2691C171.285 83.2691 170.842 83.4045 170.426 83.6752C170.017 83.9393 169.684 84.3387 169.426 84.8735C169.169 85.4017 169.04 86.062 169.04 86.8543C169.04 87.5872 169.155 88.2243 169.386 88.7658C169.624 89.3006 169.948 89.7165 170.357 90.0136C170.766 90.3108 171.232 90.4593 171.753 90.4593C172.486 90.4593 173.041 90.281 173.417 89.9245C173.8 89.5614 173.992 89.0596 173.992 88.4191H175.576C175.576 89.0794 175.421 89.667 175.111 90.182C174.8 90.697 174.358 91.1031 173.784 91.4002C173.216 91.6973 172.546 91.8458 171.773 91.8458ZM181.571 91.8458C181.056 91.8458 180.593 91.7468 180.184 91.5487C179.775 91.3507 179.451 91.0535 179.213 90.6574C178.976 90.2612 178.857 89.766 178.857 89.1718V79.5057H180.382V89.1322C180.382 90.1094 180.838 90.598 181.749 90.598C182.02 90.598 182.28 90.5683 182.531 90.5088C182.789 90.4494 183.076 90.3603 183.393 90.2414L183.611 91.3507C183.274 91.4959 182.937 91.6148 182.601 91.7072C182.27 91.7996 181.927 91.8458 181.571 91.8458ZM177.332 83.2097V82.1401H183.373V83.2097H177.332ZM191.969 91.6082L191.771 89.5283V85.4678C191.771 84.616 191.59 84.0053 191.226 83.6356C190.863 83.2592 190.319 83.071 189.592 83.071C189.183 83.071 188.81 83.1305 188.473 83.2493C188.143 83.3682 187.879 83.553 187.681 83.8039C187.489 84.0482 187.394 84.3651 187.394 84.7547H185.67C185.67 84.068 185.839 83.5167 186.175 83.1007C186.512 82.6782 186.974 82.3745 187.562 82.1896C188.156 81.9981 188.833 81.9024 189.592 81.9024C190.319 81.9024 190.962 82.0245 191.524 82.2688C192.085 82.5131 192.524 82.9027 192.841 83.4375C193.158 83.9657 193.316 84.6557 193.316 85.5074V91.6082H191.969ZM188.741 91.8458C187.961 91.8458 187.318 91.7072 186.809 91.4299C186.301 91.1526 185.921 90.7927 185.67 90.3504C185.419 89.908 185.294 89.4425 185.294 88.9539C185.294 88.3135 185.452 87.7919 185.769 87.3891C186.093 86.9864 186.532 86.6925 187.087 86.5077C187.641 86.3162 188.265 86.2205 188.958 86.2205C189.454 86.2205 189.949 86.27 190.444 86.369C190.946 86.4681 191.434 86.6034 191.91 86.7751V87.7457C191.514 87.5872 191.065 87.4617 190.563 87.3693C190.068 87.2769 189.612 87.2307 189.196 87.2307C188.562 87.2307 188.027 87.3627 187.592 87.6268C187.156 87.8843 186.938 88.3267 186.938 88.9539C186.938 89.4161 187.103 89.8123 187.433 90.1424C187.77 90.4725 188.305 90.6376 189.038 90.6376C189.553 90.6376 190.015 90.5187 190.424 90.281C190.84 90.0367 191.167 89.733 191.405 89.3699C191.649 89.0067 191.771 88.6436 191.771 88.2805H192.147C192.147 88.9143 192.009 89.5019 191.731 90.0433C191.461 90.5848 191.071 91.0205 190.563 91.3507C190.054 91.6808 189.447 91.8458 188.741 91.8458ZM210.327 91.6082V86.0422C210.327 85.1376 210.109 84.451 209.673 83.9822C209.244 83.5068 208.663 83.2691 207.93 83.2691C207.072 83.2691 206.415 83.6025 205.959 84.2694C205.503 84.9297 205.276 85.8441 205.276 87.0128H204.563C204.563 86.161 204.645 85.4149 204.81 84.7745C204.982 84.1341 205.229 83.6025 205.553 83.18C205.876 82.7508 206.269 82.4306 206.731 82.2193C207.194 82.008 207.719 81.9024 208.306 81.9024C209.052 81.9024 209.689 82.0707 210.218 82.4075C210.752 82.7376 211.162 83.213 211.446 83.8336C211.73 84.4543 211.872 85.1905 211.872 86.0422V91.6082H210.327ZM197.016 91.6082V82.1401H198.343L198.521 84.0416C198.818 83.3549 199.234 82.8267 199.769 82.457C200.31 82.0873 200.958 81.9024 201.71 81.9024C202.456 81.9024 203.093 82.0707 203.622 82.4075C204.156 82.7376 204.566 83.213 204.85 83.8336C205.134 84.4543 205.276 85.1905 205.276 86.0422V91.6082H203.75V86.0422C203.75 85.1376 203.533 84.451 203.097 83.9822C202.668 83.5068 202.08 83.2691 201.334 83.2691C200.766 83.2691 200.274 83.4243 199.858 83.7346C199.442 84.0449 199.122 84.4906 198.898 85.0716C198.673 85.646 198.561 86.3327 198.561 87.1316V91.6082H197.016ZM218.974 91.8458C218.122 91.8458 217.363 91.6577 216.696 91.2813C216.035 90.905 215.514 90.3471 215.131 89.6076C214.748 88.8681 214.556 87.9569 214.556 86.8741C214.556 85.7847 214.748 84.8735 215.131 84.1407C215.514 83.4012 216.035 82.8432 216.696 82.4669C217.363 82.0906 218.122 81.9024 218.974 81.9024C219.819 81.9024 220.571 82.0906 221.232 82.4669C221.899 82.8432 222.42 83.4012 222.796 84.1407C223.179 84.8735 223.371 85.7847 223.371 86.8741C223.371 87.9569 223.179 88.8681 222.796 89.6076C222.42 90.3471 221.899 90.905 221.232 91.2813C220.571 91.6577 219.819 91.8458 218.974 91.8458ZM218.934 90.4989C219.548 90.4989 220.07 90.3537 220.499 90.0632C220.928 89.766 221.251 89.3468 221.469 88.8054C221.694 88.264 221.806 87.6202 221.806 86.8741C221.806 85.7451 221.572 84.857 221.103 84.21C220.634 83.5563 219.938 83.2295 219.013 83.2295C218.393 83.2295 217.868 83.3781 217.438 83.6752C217.016 83.9657 216.692 84.3849 216.468 84.933C216.25 85.4744 216.141 86.1214 216.141 86.8741C216.141 87.9899 216.375 88.8747 216.844 89.5283C217.32 90.1754 218.016 90.4989 218.934 90.4989ZM229.786 91.8458C228.868 91.8458 228.102 91.7171 227.488 91.4596C226.874 91.1955 226.409 90.8357 226.092 90.3801C225.775 89.9179 225.607 89.3897 225.587 88.7955H227.072C227.105 89.3963 227.346 89.8486 227.795 90.1523C228.251 90.4494 228.868 90.598 229.647 90.598C230.057 90.598 230.433 90.5319 230.776 90.3999C231.12 90.2678 231.394 90.0863 231.598 89.8552C231.803 89.6241 231.906 89.3633 231.906 89.0728C231.906 88.703 231.77 88.4125 231.499 88.2012C231.229 87.9899 230.796 87.8051 230.202 87.6466L228.36 87.0524C227.561 86.8015 226.947 86.4582 226.518 86.0224C226.095 85.58 225.884 85.0518 225.884 84.4378C225.884 83.6719 226.221 83.0578 226.894 82.5957C227.568 82.1335 228.452 81.9024 229.548 81.9024C230.71 81.9024 231.612 82.1401 232.252 82.6155C232.893 83.0908 233.226 83.6851 233.252 84.3982H231.727C231.668 83.9822 231.457 83.6686 231.093 83.4573C230.73 83.2394 230.215 83.1305 229.548 83.1305C228.908 83.1305 228.406 83.2757 228.043 83.5662C227.686 83.8501 227.508 84.1671 227.508 84.517C227.508 85.1707 228.069 85.6526 229.192 85.963L231.074 86.5968C231.886 86.8411 232.506 87.1613 232.936 87.5575C233.371 87.9536 233.589 88.4587 233.589 89.0728C233.589 89.5482 233.434 89.9971 233.124 90.4197C232.813 90.8423 232.374 91.1856 231.806 91.4497C231.239 91.7138 230.565 91.8458 229.786 91.8458ZM239.605 80.496V79.1689H249.291V80.496H244.864L245.21 80.1395V91.6082H243.665V80.1395L244.012 80.496H239.605ZM255.551 91.6082L255.353 89.5283V85.4678C255.353 84.616 255.171 84.0053 254.808 83.6356C254.445 83.2592 253.9 83.071 253.174 83.071C252.765 83.071 252.392 83.1305 252.055 83.2493C251.725 83.3682 251.461 83.553 251.263 83.8039C251.071 84.0482 250.976 84.3651 250.976 84.7547H249.252C249.252 84.068 249.421 83.5167 249.757 83.1007C250.094 82.6782 250.556 82.3745 251.144 82.1896C251.738 81.9981 252.415 81.9024 253.174 81.9024C253.9 81.9024 254.544 82.0245 255.105 82.2688C255.667 82.5131 256.106 82.9027 256.423 83.4375C256.74 83.9657 256.898 84.6557 256.898 85.5074V91.6082H255.551ZM252.322 91.8458C251.543 91.8458 250.9 91.7072 250.391 91.4299C249.883 91.1526 249.503 90.7927 249.252 90.3504C249.001 89.908 248.876 89.4425 248.876 88.9539C248.876 88.3135 249.034 87.7919 249.351 87.3891C249.675 86.9864 250.114 86.6925 250.669 86.5077C251.223 86.3162 251.847 86.2205 252.54 86.2205C253.036 86.2205 253.531 86.27 254.026 86.369C254.528 86.4681 255.016 86.6034 255.492 86.7751V87.7457C255.096 87.5872 254.647 87.4617 254.145 87.3693C253.65 87.2769 253.194 87.2307 252.778 87.2307C252.144 87.2307 251.609 87.3627 251.174 87.6268C250.738 87.8843 250.52 88.3267 250.52 88.9539C250.52 89.4161 250.685 89.8123 251.015 90.1424C251.352 90.4725 251.887 90.6376 252.62 90.6376C253.135 90.6376 253.597 90.5187 254.006 90.281C254.422 90.0367 254.749 89.733 254.987 89.3699C255.231 89.0067 255.353 88.6436 255.353 88.2805H255.729C255.729 88.9143 255.591 89.5019 255.313 90.0433C255.043 90.5848 254.653 91.0205 254.145 91.3507C253.636 91.6808 253.029 91.8458 252.322 91.8458ZM260.598 91.6082V78.0993H262.143V91.6082H260.598ZM269.437 91.8458C268.619 91.8458 267.886 91.6379 267.239 91.2219C266.598 90.7993 266.09 90.215 265.714 89.4689C265.344 88.7228 265.159 87.8645 265.159 86.8939C265.159 85.8573 265.344 84.966 265.714 84.2199C266.083 83.4738 266.588 82.9027 267.229 82.5065C267.876 82.1038 268.612 81.9024 269.437 81.9024C270.157 81.9024 270.771 82.0476 271.279 82.3382C271.788 82.6287 272.197 83.0215 272.508 83.5167C272.818 84.0119 273.032 84.5731 273.151 85.2004C273.277 85.821 273.313 86.4648 273.26 87.1316H266.407V86.1808H272.24L271.785 86.478C271.804 86.0884 271.781 85.6989 271.715 85.3093C271.656 84.9198 271.54 84.5632 271.369 84.2397C271.197 83.9096 270.956 83.6455 270.646 83.4474C270.335 83.2493 269.939 83.1503 269.457 83.1503C268.85 83.1503 268.341 83.3054 267.932 83.6157C267.523 83.9261 267.216 84.3354 267.011 84.8438C266.806 85.3456 266.704 85.8903 266.704 86.478V87.1118C266.704 87.7721 266.803 88.363 267.001 88.8846C267.206 89.4062 267.509 89.8189 267.912 90.1226C268.315 90.4263 268.823 90.5782 269.437 90.5782C270.051 90.5782 270.557 90.4296 270.953 90.1325C271.349 89.8354 271.59 89.3963 271.676 88.8153H273.28C273.181 89.4425 272.957 89.9839 272.607 90.4395C272.257 90.8885 271.811 91.2351 271.27 91.4794C270.728 91.7237 270.117 91.8458 269.437 91.8458ZM283.059 91.6082V86.0422C283.059 85.1376 282.841 84.451 282.405 83.9822C281.976 83.5068 281.388 83.2691 280.642 83.2691C280.074 83.2691 279.582 83.4243 279.166 83.7346C278.75 84.0449 278.43 84.4906 278.206 85.0716C277.981 85.646 277.869 86.3327 277.869 87.1316H277.275C277.275 86.029 277.42 85.0881 277.71 84.309C278.001 83.5299 278.424 82.9357 278.978 82.5263C279.539 82.1104 280.219 81.9024 281.018 81.9024C281.764 81.9024 282.402 82.0707 282.93 82.4075C283.465 82.7376 283.874 83.213 284.158 83.8336C284.442 84.4543 284.584 85.1905 284.584 86.0422V91.6082H283.059ZM276.324 91.6082V82.1401H277.651L277.869 84.3189V91.6082H276.324ZM291.19 91.8458C290.675 91.8458 290.213 91.7468 289.803 91.5487C289.394 91.3507 289.071 91.0535 288.833 90.6574C288.595 90.2612 288.476 89.766 288.476 89.1718V79.5057H290.001V89.1322C290.001 90.1094 290.457 90.598 291.368 90.598C291.639 90.598 291.9 90.5683 292.151 90.5088C292.408 90.4494 292.695 90.3603 293.012 90.2414L293.23 91.3507C292.893 91.4959 292.557 91.6148 292.22 91.7072C291.89 91.7996 291.546 91.8458 291.19 91.8458ZM286.951 83.2097V82.1401H292.992V83.2097H286.951ZM299.152 91.8458C298.3 91.8458 297.541 91.6577 296.874 91.2813C296.214 90.905 295.692 90.3471 295.309 89.6076C294.927 88.8681 294.735 87.9569 294.735 86.8741C294.735 85.7847 294.927 84.8735 295.309 84.1407C295.692 83.4012 296.214 82.8432 296.874 82.4669C297.541 82.0906 298.3 81.9024 299.152 81.9024C299.997 81.9024 300.75 82.0906 301.41 82.4669C302.077 82.8432 302.599 83.4012 302.975 84.1407C303.358 84.8735 303.549 85.7847 303.549 86.8741C303.549 87.9569 303.358 88.8681 302.975 89.6076C302.599 90.3471 302.077 90.905 301.41 91.2813C300.75 91.6577 299.997 91.8458 299.152 91.8458ZM299.113 90.4989C299.727 90.4989 300.248 90.3537 300.677 90.0632C301.107 89.766 301.43 89.3468 301.648 88.8054C301.872 88.264 301.985 87.6202 301.985 86.8741C301.985 85.7451 301.75 84.857 301.281 84.21C300.813 83.5563 300.116 83.2295 299.192 83.2295C298.571 83.2295 298.046 83.3781 297.617 83.6752C297.195 83.9657 296.871 84.3849 296.646 84.933C296.429 85.4744 296.32 86.1214 296.32 86.8741C296.32 87.9899 296.554 88.8747 297.023 89.5283C297.498 90.1754 298.195 90.4989 299.113 90.4989ZM309.965 91.8458C309.047 91.8458 308.281 91.7171 307.667 91.4596C307.053 91.1955 306.587 90.8357 306.271 90.3801C305.954 89.9179 305.785 89.3897 305.765 88.7955H307.251C307.284 89.3963 307.525 89.8486 307.974 90.1523C308.43 90.4494 309.047 90.598 309.826 90.598C310.235 90.598 310.612 90.5319 310.955 90.3999C311.298 90.2678 311.572 90.0863 311.777 89.8552C311.982 89.6241 312.084 89.3633 312.084 89.0728C312.084 88.703 311.949 88.4125 311.678 88.2012C311.407 87.9899 310.975 87.8051 310.381 87.6466L308.539 87.0524C307.74 86.8015 307.126 86.4582 306.696 86.0224C306.274 85.58 306.063 85.0518 306.063 84.4378C306.063 83.6719 306.399 83.0578 307.073 82.5957C307.746 82.1335 308.631 81.9024 309.727 81.9024C310.889 81.9024 311.79 82.1401 312.431 82.6155C313.071 83.0908 313.405 83.6851 313.431 84.3982H311.906C311.846 83.9822 311.635 83.6686 311.272 83.4573C310.909 83.2394 310.394 83.1305 309.727 83.1305C309.087 83.1305 308.585 83.2757 308.222 83.5662C307.865 83.8501 307.687 84.1671 307.687 84.517C307.687 85.1707 308.248 85.6526 309.37 85.963L311.252 86.5968C312.064 86.8411 312.685 87.1613 313.114 87.5575C313.55 87.9536 313.768 88.4587 313.768 89.0728C313.768 89.5482 313.613 89.9971 313.302 90.4197C312.992 90.8423 312.553 91.1856 311.985 91.4497C311.417 91.7138 310.744 91.8458 309.965 91.8458ZM327.528 91.6082L327.33 89.5283V85.4678C327.33 84.616 327.148 84.0053 326.785 83.6356C326.422 83.2592 325.877 83.071 325.151 83.071C324.742 83.071 324.369 83.1305 324.032 83.2493C323.702 83.3682 323.438 83.553 323.24 83.8039C323.048 84.0482 322.953 84.3651 322.953 84.7547H321.229C321.229 84.068 321.398 83.5167 321.734 83.1007C322.071 82.6782 322.533 82.3745 323.121 82.1896C323.715 81.9981 324.392 81.9024 325.151 81.9024C325.877 81.9024 326.521 82.0245 327.082 82.2688C327.644 82.5131 328.083 82.9027 328.4 83.4375C328.717 83.9657 328.875 84.6557 328.875 85.5074V91.6082H327.528ZM324.299 91.8458C323.52 91.8458 322.877 91.7072 322.368 91.4299C321.86 91.1526 321.48 90.7927 321.229 90.3504C320.978 89.908 320.853 89.4425 320.853 88.9539C320.853 88.3135 321.011 87.7919 321.328 87.3891C321.652 86.9864 322.091 86.6925 322.645 86.5077C323.2 86.3162 323.824 86.2205 324.517 86.2205C325.013 86.2205 325.508 86.27 326.003 86.369C326.505 86.4681 326.993 86.6034 327.469 86.7751V87.7457C327.073 87.5872 326.624 87.4617 326.122 87.3693C325.627 87.2769 325.171 87.2307 324.755 87.2307C324.121 87.2307 323.586 87.3627 323.151 87.6268C322.715 87.8843 322.497 88.3267 322.497 88.9539C322.497 89.4161 322.662 89.8123 322.992 90.1424C323.329 90.4725 323.864 90.6376 324.597 90.6376C325.112 90.6376 325.574 90.5187 325.983 90.281C326.399 90.0367 326.726 89.733 326.964 89.3699C327.208 89.0067 327.33 88.6436 327.33 88.2805H327.706C327.706 88.9143 327.568 89.5019 327.29 90.0433C327.02 90.5848 326.63 91.0205 326.122 91.3507C325.613 91.6808 325.006 91.8458 324.299 91.8458ZM341.672 91.8458C340.642 91.8458 339.721 91.6082 338.909 91.1328C338.097 90.6574 337.457 89.9443 336.988 88.9935C336.519 88.0362 336.285 86.8411 336.285 85.4083C336.285 83.9558 336.519 82.7541 336.988 81.8033C337.457 80.846 338.097 80.1329 338.909 79.6641C339.721 79.1887 340.642 78.951 341.672 78.951C342.702 78.951 343.624 79.1887 344.436 79.6641C345.248 80.1395 345.888 80.8559 346.357 81.8132C346.826 82.7706 347.06 83.969 347.06 85.4083C347.06 86.8543 346.826 88.056 346.357 89.0133C345.888 89.9641 345.248 90.6739 344.436 91.1427C343.624 91.6115 342.702 91.8458 341.672 91.8458ZM341.672 90.4197C342.841 90.4197 343.762 89.9938 344.436 89.1421C345.116 88.2904 345.456 87.0392 345.456 85.3885C345.456 83.7709 345.116 82.5263 344.436 81.6548C343.762 80.7766 342.841 80.3376 341.672 80.3376C340.517 80.3376 339.596 80.7766 338.909 81.6548C338.229 82.5329 337.889 83.7841 337.889 85.4083C337.889 87.0524 338.229 88.3003 338.909 89.152C339.596 89.9971 340.517 90.4197 341.672 90.4197ZM354.359 91.8458C353.666 91.8458 353.062 91.6874 352.547 91.3705C352.039 91.0535 351.646 90.5914 351.368 89.9839C351.091 89.3699 350.953 88.6238 350.953 87.7457H351.606C351.606 88.3333 351.728 88.8285 351.973 89.2312C352.217 89.634 352.534 89.941 352.923 90.1523C353.32 90.357 353.739 90.4593 354.181 90.4593C354.657 90.4593 355.112 90.324 355.548 90.0533C355.984 89.7759 356.34 89.3699 356.618 88.8351C356.895 88.3003 357.033 87.64 357.033 86.8543C357.033 86.1016 356.905 85.4579 356.647 84.9231C356.396 84.3882 356.056 83.9789 355.627 83.695C355.198 83.4111 354.723 83.2691 354.201 83.2691C353.752 83.2691 353.329 83.3781 352.933 83.5959C352.537 83.8138 352.217 84.1341 351.973 84.5566C351.728 84.9726 351.606 85.4876 351.606 86.1016H350.953C350.953 85.1839 351.104 84.4147 351.408 83.794C351.712 83.1668 352.124 82.6947 352.646 82.3778C353.168 82.0608 353.752 81.9024 354.399 81.9024C355.139 81.9024 355.829 82.1005 356.469 82.4966C357.109 82.8928 357.628 83.4606 358.024 84.2001C358.42 84.9396 358.618 85.8243 358.618 86.8543C358.618 87.8975 358.417 88.7922 358.014 89.5383C357.618 90.2843 357.096 90.8555 356.449 91.2516C355.802 91.6478 355.106 91.8458 354.359 91.8458ZM350.061 96.263V82.1401H351.349L351.606 84.3585V96.263H350.061ZM365.075 91.8458C364.223 91.8458 363.464 91.6577 362.797 91.2813C362.137 90.905 361.615 90.3471 361.232 89.6076C360.849 88.8681 360.658 87.9569 360.658 86.8741C360.658 85.7847 360.849 84.8735 361.232 84.1407C361.615 83.4012 362.137 82.8432 362.797 82.4669C363.464 82.0906 364.223 81.9024 365.075 81.9024C365.92 81.9024 366.672 82.0906 367.333 82.4669C368 82.8432 368.521 83.4012 368.898 84.1407C369.28 84.8735 369.472 85.7847 369.472 86.8741C369.472 87.9569 369.28 88.8681 368.898 89.6076C368.521 90.3471 368 90.905 367.333 91.2813C366.672 91.6577 365.92 91.8458 365.075 91.8458ZM365.035 90.4989C365.649 90.4989 366.171 90.3537 366.6 90.0632C367.029 89.766 367.353 89.3468 367.57 88.8054C367.795 88.264 367.907 87.6202 367.907 86.8741C367.907 85.7451 367.673 84.857 367.204 84.21C366.735 83.5563 366.039 83.2295 365.114 83.2295C364.494 83.2295 363.969 83.3781 363.54 83.6752C363.117 83.9657 362.793 84.3849 362.569 84.933C362.351 85.4744 362.242 86.1214 362.242 86.8741C362.242 87.9899 362.477 88.8747 362.945 89.5283C363.421 90.1754 364.117 90.4989 365.035 90.4989ZM372.48 91.6082V82.1203H374.025V91.6082H372.48ZM373.55 87.3297C373.55 86.128 373.665 85.131 373.897 84.3387C374.128 83.5398 374.464 82.9456 374.907 82.556C375.356 82.1599 375.9 81.9618 376.541 81.9618C376.752 81.9618 376.944 81.9783 377.115 82.0113C377.294 82.0377 377.472 82.0807 377.65 82.1401L377.551 83.6653C377.366 83.6058 377.165 83.5563 376.947 83.5167C376.729 83.4705 376.534 83.4474 376.363 83.4474C375.801 83.4474 375.349 83.6091 375.006 83.9327C374.662 84.2496 374.412 84.6986 374.253 85.2796C374.101 85.8606 374.025 86.544 374.025 87.3297H373.55ZM382.549 91.8458C382.034 91.8458 381.572 91.7468 381.163 91.5487C380.753 91.3507 380.43 91.0535 380.192 90.6574C379.954 90.2612 379.835 89.766 379.835 89.1718V79.5057H381.361V89.1322C381.361 90.1094 381.816 90.598 382.727 90.598C382.998 90.598 383.259 90.5683 383.51 90.5088C383.767 90.4494 384.054 90.3603 384.371 90.2414L384.589 91.3507C384.253 91.4959 383.916 91.6148 383.579 91.7072C383.249 91.7996 382.906 91.8458 382.549 91.8458ZM378.31 83.2097V82.1401H384.352V83.2097H378.31ZM393.522 82.1203H395.067V91.6082H393.522V82.1203ZM386.807 82.1203H388.352V88.023C388.352 88.8153 388.544 89.4161 388.927 89.8255C389.316 90.2348 389.871 90.4395 390.591 90.4395C391.185 90.4395 391.7 90.281 392.136 89.9641C392.578 89.6472 392.918 89.2114 393.156 88.6568C393.4 88.0956 393.522 87.4551 393.522 86.7355H394.096C394.096 87.7985 393.941 88.7063 393.631 89.459C393.327 90.2117 392.895 90.7894 392.334 91.1922C391.779 91.5883 391.125 91.7864 390.373 91.7864C389.66 91.7864 389.036 91.6544 388.501 91.3903C387.966 91.1262 387.55 90.7267 387.253 90.1919C386.956 89.6505 386.807 88.9671 386.807 88.1418V82.1203ZM405.812 91.6082V86.0422C405.812 85.1376 405.594 84.451 405.158 83.9822C404.729 83.5068 404.142 83.2691 403.396 83.2691C402.828 83.2691 402.336 83.4243 401.92 83.7346C401.504 84.0449 401.184 84.4906 400.959 85.0716C400.735 85.646 400.622 86.3327 400.622 87.1316H400.028C400.028 86.029 400.174 85.0881 400.464 84.309C400.755 83.5299 401.177 82.9357 401.732 82.5263C402.293 82.1104 402.973 81.9024 403.772 81.9024C404.518 81.9024 405.155 82.0707 405.683 82.4075C406.218 82.7376 406.628 83.213 406.911 83.8336C407.195 84.4543 407.337 85.1905 407.337 86.0422V91.6082H405.812ZM399.077 91.6082V82.1401H400.405L400.622 84.3189V91.6082H399.077ZM411.903 79.9018C411.586 79.9018 411.335 79.8127 411.151 79.6344C410.966 79.4495 410.873 79.2085 410.873 78.9114C410.873 78.6209 410.966 78.3898 411.151 78.2182C411.335 78.0465 411.586 77.9607 411.903 77.9607C412.22 77.9607 412.471 78.0465 412.656 78.2182C412.841 78.3898 412.933 78.6209 412.933 78.9114C412.933 79.2085 412.841 79.4495 412.656 79.6344C412.471 79.8127 412.22 79.9018 411.903 79.9018ZM411.131 91.6082V82.1203H412.676V91.6082H411.131ZM420.319 91.8458C419.553 91.8458 418.85 91.6412 418.209 91.2318C417.569 90.8158 417.057 90.2348 416.674 89.4887C416.291 88.736 416.1 87.8513 416.1 86.8345C416.1 85.8243 416.288 84.9495 416.664 84.21C417.04 83.4705 417.539 82.9027 418.16 82.5065C418.787 82.1038 419.473 81.9024 420.22 81.9024C420.913 81.9024 421.52 82.0707 422.042 82.4075C422.57 82.7442 422.979 83.2295 423.27 83.8633C423.56 84.4972 423.706 85.2631 423.706 86.161H423.111C423.111 85.5338 422.986 85.0056 422.735 84.5764C422.491 84.1473 422.171 83.8237 421.774 83.6058C421.378 83.3814 420.952 83.2691 420.497 83.2691C419.982 83.2691 419.51 83.4144 419.081 83.7049C418.658 83.9888 418.318 84.3982 418.061 84.933C417.81 85.4612 417.684 86.095 417.684 86.8345C417.684 87.5872 417.81 88.2342 418.061 88.7757C418.318 89.3171 418.658 89.733 419.081 90.0235C419.51 90.3141 419.982 90.4593 420.497 90.4593C420.926 90.4593 421.339 90.3471 421.735 90.1226C422.138 89.8981 422.468 89.5713 422.725 89.1421C422.983 88.7063 423.111 88.1814 423.111 87.5674H423.706C423.706 88.4851 423.554 89.2642 423.25 89.9047C422.953 90.5385 422.547 91.0205 422.032 91.3507C421.524 91.6808 420.952 91.8458 420.319 91.8458ZM423.369 91.6082L423.111 89.3897V78.0993H424.656V91.6082H423.369ZM434.536 91.6082L434.338 89.5283V85.4678C434.338 84.616 434.156 84.0053 433.793 83.6356C433.43 83.2592 432.885 83.071 432.159 83.071C431.75 83.071 431.377 83.1305 431.04 83.2493C430.71 83.3682 430.446 83.553 430.248 83.8039C430.056 84.0482 429.96 84.3651 429.96 84.7547H428.237C428.237 84.068 428.406 83.5167 428.742 83.1007C429.079 82.6782 429.541 82.3745 430.129 82.1896C430.723 81.9981 431.4 81.9024 432.159 81.9024C432.885 81.9024 433.529 82.0245 434.09 82.2688C434.652 82.5131 435.091 82.9027 435.408 83.4375C435.725 83.9657 435.883 84.6557 435.883 85.5074V91.6082H434.536ZM431.307 91.8458C430.528 91.8458 429.885 91.7072 429.376 91.4299C428.868 91.1526 428.488 90.7927 428.237 90.3504C427.986 89.908 427.861 89.4425 427.861 88.9539C427.861 88.3135 428.019 87.7919 428.336 87.3891C428.66 86.9864 429.099 86.6925 429.653 86.5077C430.208 86.3162 430.832 86.2205 431.525 86.2205C432.02 86.2205 432.516 86.27 433.011 86.369C433.513 86.4681 434.001 86.6034 434.477 86.7751V87.7457C434.08 87.5872 433.631 87.4617 433.13 87.3693C432.635 87.2769 432.179 87.2307 431.763 87.2307C431.129 87.2307 430.594 87.3627 430.159 87.6268C429.723 87.8843 429.505 88.3267 429.505 88.9539C429.505 89.4161 429.67 89.8123 430 90.1424C430.337 90.4725 430.872 90.6376 431.605 90.6376C432.12 90.6376 432.582 90.5187 432.991 90.281C433.407 90.0367 433.734 89.733 433.972 89.3699C434.216 89.0067 434.338 88.6436 434.338 88.2805H434.714C434.714 88.9143 434.576 89.5019 434.298 90.0433C434.028 90.5848 433.638 91.0205 433.13 91.3507C432.621 91.6808 432.014 91.8458 431.307 91.8458ZM442.97 91.8458C442.204 91.8458 441.501 91.6412 440.86 91.2318C440.22 90.8158 439.708 90.2348 439.325 89.4887C438.942 88.736 438.751 87.8513 438.751 86.8345C438.751 85.8243 438.939 84.9495 439.315 84.21C439.692 83.4705 440.19 82.9027 440.811 82.5065C441.438 82.1038 442.125 81.9024 442.871 81.9024C443.564 81.9024 444.171 82.0707 444.693 82.4075C445.221 82.7442 445.631 83.2295 445.921 83.8633C446.212 84.4972 446.357 85.2631 446.357 86.161H445.763C445.763 85.5338 445.637 85.0056 445.386 84.5764C445.142 84.1473 444.822 83.8237 444.426 83.6058C444.029 83.3814 443.604 83.2691 443.148 83.2691C442.633 83.2691 442.161 83.4144 441.732 83.7049C441.309 83.9888 440.969 84.3982 440.712 84.933C440.461 85.4612 440.335 86.095 440.335 86.8345C440.335 87.5872 440.461 88.2342 440.712 88.7757C440.969 89.3171 441.309 89.733 441.732 90.0235C442.161 90.3141 442.633 90.4593 443.148 90.4593C443.577 90.4593 443.99 90.3471 444.386 90.1226C444.789 89.8981 445.119 89.5713 445.376 89.1421C445.634 88.7063 445.763 88.1814 445.763 87.5674H446.357C446.357 88.4851 446.205 89.2642 445.901 89.9047C445.604 90.5385 445.198 91.0205 444.683 91.3507C444.175 91.6808 443.604 91.8458 442.97 91.8458ZM446.02 91.6082L445.763 89.3897V78.0993H447.308V91.6082H446.02ZM454.612 91.8458C453.794 91.8458 453.061 91.6379 452.414 91.2219C451.773 90.7993 451.265 90.215 450.888 89.4689C450.519 88.7228 450.334 87.8645 450.334 86.8939C450.334 85.8573 450.519 84.966 450.888 84.2199C451.258 83.4738 451.763 82.9027 452.404 82.5065C453.051 82.1038 453.787 81.9024 454.612 81.9024C455.332 81.9024 455.946 82.0476 456.454 82.3382C456.963 82.6287 457.372 83.0215 457.682 83.5167C457.993 84.0119 458.207 84.5731 458.326 85.2004C458.452 85.821 458.488 86.4648 458.435 87.1316H451.582V86.1808H457.415L456.959 86.478C456.979 86.0884 456.956 85.6989 456.89 85.3093C456.831 84.9198 456.715 84.5632 456.543 84.2397C456.372 83.9096 456.131 83.6455 455.821 83.4474C455.51 83.2493 455.114 83.1503 454.632 83.1503C454.025 83.1503 453.516 83.3054 453.107 83.6157C452.697 83.9261 452.39 84.3354 452.186 84.8438C451.981 85.3456 451.879 85.8903 451.879 86.478V87.1118C451.879 87.7721 451.978 88.363 452.176 88.8846C452.381 89.4062 452.684 89.8189 453.087 90.1226C453.49 90.4263 453.998 90.5782 454.612 90.5782C455.226 90.5782 455.731 90.4296 456.128 90.1325C456.524 89.8354 456.765 89.3963 456.851 88.8153H458.455C458.356 89.4425 458.131 89.9839 457.781 90.4395C457.432 90.8885 456.986 91.2351 456.444 91.4794C455.903 91.7237 455.292 91.8458 454.612 91.8458ZM464.906 91.8458C463.988 91.8458 463.222 91.7171 462.608 91.4596C461.994 91.1955 461.529 90.8357 461.212 90.3801C460.895 89.9179 460.726 89.3897 460.706 88.7955H462.192C462.225 89.3963 462.466 89.8486 462.915 90.1523C463.371 90.4494 463.988 90.598 464.767 90.598C465.176 90.598 465.553 90.5319 465.896 90.3999C466.239 90.2678 466.513 90.0863 466.718 89.8552C466.923 89.6241 467.025 89.3633 467.025 89.0728C467.025 88.703 466.89 88.4125 466.619 88.2012C466.348 87.9899 465.916 87.8051 465.322 87.6466L463.48 87.0524C462.681 86.8015 462.067 86.4582 461.637 86.0224C461.215 85.58 461.004 85.0518 461.004 84.4378C461.004 83.6719 461.34 83.0578 462.014 82.5957C462.687 82.1335 463.572 81.9024 464.668 81.9024C465.83 81.9024 466.731 82.1401 467.372 82.6155C468.012 83.0908 468.346 83.6851 468.372 84.3982H466.847C466.787 83.9822 466.576 83.6686 466.213 83.4573C465.85 83.2394 465.335 83.1305 464.668 83.1305C464.028 83.1305 463.526 83.2757 463.163 83.5662C462.806 83.8501 462.628 84.1671 462.628 84.517C462.628 85.1707 463.189 85.6526 464.311 85.963L466.193 86.5968C467.005 86.8411 467.626 87.1613 468.055 87.5575C468.491 87.9536 468.709 88.4587 468.709 89.0728C468.709 89.5482 468.554 89.9971 468.243 90.4197C467.933 90.8423 467.494 91.1856 466.926 91.4497C466.358 91.7138 465.685 91.8458 464.906 91.8458Z" fill="#8C83ED"/>
</g>
<defs>
<clipPath id="clip0_1_9">
<rect width="476" height="114" fill="white"/>
</clipPath>
<clipPath id="clip1_1_9">
<rect width="150" height="150" fill="white" transform="translate(-55 -39)"/>
</clipPath>
</defs>
</svg>
